M48
; DRILL file {KiCad 7.0.7} date Fri Apr  5 11:51:32 2024
; FORMAT={-:-/ absolute / metric / decimal}
; #@! TF.CreationDate,2024-04-05T11:51:32+02:00
; #@! TF.GenerationSoftware,Kicad,Pcbnew,7.0.7
; #@! TF.FileFunction,Plated,1,4,PTH
FMAT,2
METRIC
; #@! TA.AperFunction,Plated,PTH,ViaDrill
T1C0.150
; #@! TA.AperFunction,Plated,PTH,ViaDrill
T2C0.300
; #@! TA.AperFunction,Plated,PTH,ComponentDrill
T3C0.400
; #@! TA.AperFunction,Plated,PTH,ComponentDrill
T4C0.500
; #@! TA.AperFunction,Plated,PTH,ComponentDrill
T5C0.600
; #@! TA.AperFunction,Plated,PTH,ComponentDrill
T6C1.025
%
G90
G05
T1
X97.23Y-35.682
X97.23Y-75.682
X97.23Y-115.682
X99.465Y-41.416
X99.465Y-81.416
X99.465Y-121.416
X100.13Y-40.655
X100.13Y-80.655
X100.13Y-120.655
X100.4Y-43.752
X100.4Y-83.752
X100.4Y-123.752
X104.088Y-39.931
X104.088Y-79.931
X104.088Y-119.931
X106.52Y-43.521
X106.52Y-83.522
X106.52Y-123.521
X110.364Y-53.207
X110.364Y-93.207
X110.364Y-133.207
X110.426Y-43.177
X110.426Y-83.177
X110.426Y-123.177
X110.471Y-37.398
X110.471Y-77.397
X110.471Y-117.397
X110.472Y-44.066
X110.472Y-84.066
X110.472Y-124.066
X110.486Y-45.847
X110.486Y-85.847
X110.486Y-125.847
X110.501Y-47.431
X110.501Y-87.431
X110.501Y-127.431
X112.312Y-48.774
X112.312Y-88.774
X112.312Y-128.774
X114.334Y-44.125
X114.334Y-84.126
X114.334Y-124.125
X115.959Y-47.32
X115.959Y-87.32
X115.959Y-127.32
X118.235Y-46.107
X118.235Y-86.108
X118.235Y-126.107
X121.243Y-44.721
X121.243Y-84.721
X121.243Y-124.721
X122.291Y-51.349
X122.291Y-91.349
X122.291Y-131.35
X123.252Y-46.149
X123.252Y-86.149
X123.252Y-126.149
X125.262Y-49.095
X125.262Y-49.445
X125.262Y-49.795
X125.262Y-50.145
X125.262Y-50.495
X125.262Y-89.095
X125.262Y-89.445
X125.262Y-89.795
X125.262Y-90.145
X125.262Y-90.495
X125.262Y-129.095
X125.262Y-129.445
X125.262Y-129.795
X125.262Y-130.145
X125.262Y-130.495
X125.584Y-48.047
X125.584Y-88.047
X125.584Y-128.047
X125.612Y-50.145
X125.612Y-50.495
X125.612Y-90.145
X125.612Y-90.495
X125.612Y-130.145
X125.612Y-130.495
X125.962Y-50.145
X125.962Y-50.495
X125.962Y-90.145
X125.962Y-90.495
X125.962Y-130.145
X125.962Y-130.495
X126.312Y-50.145
X126.312Y-50.495
X126.312Y-90.145
X126.312Y-90.495
X126.312Y-130.145
X126.312Y-130.495
X126.462Y-46.65
X126.462Y-86.65
X126.462Y-126.65
X126.567Y-42.414
X126.567Y-82.414
X126.567Y-122.414
X126.662Y-49.445
X126.662Y-49.795
X126.662Y-50.145
X126.662Y-50.495
X126.662Y-89.445
X126.662Y-89.795
X126.662Y-90.145
X126.662Y-90.495
X126.662Y-129.445
X126.662Y-129.795
X126.662Y-130.145
X126.662Y-130.495
X126.665Y-49.096
X126.665Y-89.096
X126.665Y-129.095
X126.683Y-47.508
X126.683Y-87.507
X126.683Y-127.507
X127.218Y-46.102
X127.218Y-86.102
X127.218Y-126.102
X157.23Y-35.682
X157.23Y-75.682
X157.23Y-115.682
X159.465Y-41.416
X159.465Y-81.416
X159.465Y-121.416
X160.13Y-40.655
X160.13Y-80.655
X160.13Y-120.655
X160.4Y-43.752
X160.4Y-83.752
X160.4Y-123.752
X164.088Y-39.931
X164.088Y-79.931
X164.088Y-119.931
X166.52Y-43.521
X166.52Y-83.522
X166.52Y-123.521
X170.363Y-53.207
X170.363Y-93.207
X170.363Y-133.207
X170.427Y-43.177
X170.427Y-83.177
X170.427Y-123.177
X170.471Y-37.398
X170.471Y-77.397
X170.471Y-117.397
X170.472Y-44.066
X170.472Y-84.066
X170.472Y-124.066
X170.486Y-45.847
X170.486Y-85.847
X170.486Y-125.847
X170.501Y-47.431
X170.501Y-87.431
X170.501Y-127.431
X172.312Y-48.774
X172.312Y-88.774
X172.312Y-128.774
X174.334Y-44.125
X174.334Y-84.126
X174.334Y-124.125
X175.959Y-47.32
X175.959Y-87.32
X175.959Y-127.32
X178.236Y-46.107
X178.236Y-86.108
X178.236Y-126.107
X181.243Y-44.721
X181.243Y-84.721
X181.243Y-124.721
X182.291Y-51.349
X182.291Y-91.349
X182.291Y-131.35
X183.252Y-46.149
X183.252Y-86.149
X183.252Y-126.149
X185.262Y-49.095
X185.262Y-49.445
X185.262Y-49.795
X185.262Y-50.145
X185.262Y-50.495
X185.262Y-89.095
X185.262Y-89.445
X185.262Y-89.795
X185.262Y-90.145
X185.262Y-90.495
X185.262Y-129.095
X185.262Y-129.445
X185.262Y-129.795
X185.262Y-130.145
X185.262Y-130.495
X185.583Y-48.047
X185.583Y-88.047
X185.583Y-128.047
X185.612Y-50.145
X185.612Y-50.495
X185.612Y-90.145
X185.612Y-90.495
X185.612Y-130.145
X185.612Y-130.495
X185.962Y-50.145
X185.962Y-50.495
X185.962Y-90.145
X185.962Y-90.495
X185.962Y-130.145
X185.962Y-130.495
X186.312Y-50.145
X186.312Y-50.495
X186.312Y-90.145
X186.312Y-90.495
X186.312Y-130.145
X186.312Y-130.495
X186.462Y-46.65
X186.462Y-86.65
X186.462Y-126.65
X186.567Y-42.414
X186.567Y-82.414
X186.567Y-122.414
X186.662Y-49.445
X186.662Y-49.795
X186.662Y-50.145
X186.662Y-50.495
X186.662Y-89.445
X186.662Y-89.795
X186.662Y-90.145
X186.662Y-90.495
X186.662Y-129.445
X186.662Y-129.795
X186.662Y-130.145
X186.662Y-130.495
X186.665Y-49.096
X186.665Y-89.096
X186.665Y-129.095
X186.683Y-47.508
X186.683Y-87.507
X186.683Y-127.507
X187.218Y-46.102
X187.218Y-86.102
X187.218Y-126.102
T2
X100.752Y-36.681
X100.752Y-76.681
X100.752Y-116.681
X104.03Y-51.496
X104.03Y-91.496
X104.03Y-131.496
X104.736Y-57.241
X104.736Y-97.241
X104.736Y-137.241
X105.083Y-55.465
X105.083Y-95.465
X105.083Y-135.465
X105.291Y-44.751
X105.291Y-84.751
X105.291Y-124.751
X105.348Y-50.105
X105.348Y-90.105
X105.348Y-130.105
X108.058Y-54.041
X108.058Y-94.041
X108.058Y-134.041
X108.462Y-39.581
X108.462Y-79.581
X108.462Y-119.581
X108.54Y-48.459
X108.54Y-88.459
X108.54Y-128.459
X109.295Y-48.472
X109.295Y-88.472
X109.295Y-128.472
X109.642Y-56.837
X109.642Y-96.837
X109.642Y-136.837
X109.725Y-40.252
X109.725Y-80.252
X109.725Y-120.252
X109.945Y-57.677
X109.945Y-97.677
X109.945Y-137.677
X110.258Y-38.233
X110.258Y-78.233
X110.258Y-118.233
X110.31Y-41.194
X110.31Y-81.194
X110.31Y-121.194
X111.031Y-50.165
X111.031Y-90.165
X111.031Y-130.165
X111.512Y-42.147
X111.512Y-82.147
X111.512Y-122.147
X111.648Y-38.154
X111.648Y-78.153
X111.648Y-118.153
X112.348Y-42.735
X112.348Y-82.735
X112.348Y-122.735
X112.67Y-36.93
X112.67Y-76.93
X112.67Y-116.93
X112.739Y-57.779
X112.739Y-97.779
X112.739Y-137.779
X113.148Y-51.771
X113.148Y-91.771
X113.148Y-131.771
X113.7Y-57.774
X113.7Y-97.774
X113.7Y-137.774
X113.733Y-42.192
X113.733Y-82.192
X113.733Y-122.192
X113.816Y-37.232
X113.816Y-77.232
X113.816Y-117.232
X114.149Y-54.976
X114.149Y-94.976
X114.149Y-134.976
X114.464Y-42.004
X114.464Y-82.004
X114.464Y-122.004
X114.77Y-37.289
X114.77Y-77.289
X114.77Y-117.289
X114.8Y-57.35
X114.8Y-97.35
X114.8Y-137.35
X115.065Y-42.588
X115.065Y-82.588
X115.065Y-122.588
X115.366Y-37.886
X115.366Y-77.885
X115.366Y-117.885
X115.664Y-42.102
X115.664Y-82.102
X115.664Y-122.102
X116.249Y-42.623
X116.249Y-82.623
X116.249Y-122.623
X116.865Y-42.161
X116.865Y-82.161
X116.865Y-122.161
X117.866Y-42.364
X117.866Y-82.364
X117.866Y-122.364
X118.462Y-43.872
X118.462Y-83.872
X118.462Y-123.872
X119.019Y-38.03
X119.019Y-78.031
X119.019Y-118.03
X119.157Y-41.279
X119.157Y-81.279
X119.157Y-121.279
X120.025Y-45.027
X120.025Y-85.027
X120.025Y-125.027
X120.835Y-49.03
X120.835Y-89.03
X120.835Y-129.03
X121.107Y-48.125
X121.107Y-88.126
X121.107Y-128.125
X121.448Y-43.506
X121.448Y-83.507
X121.448Y-123.506
X121.561Y-54.32
X121.561Y-94.32
X121.561Y-134.32
X121.681Y-53.473
X121.681Y-93.474
X121.681Y-133.474
X121.737Y-56.569
X121.737Y-96.569
X121.737Y-136.57
X121.987Y-47.511
X121.987Y-87.511
X121.987Y-127.511
X123.046Y-49.231
X123.046Y-89.231
X123.046Y-129.231
X123.051Y-54.625
X123.051Y-94.626
X123.051Y-134.625
X123.322Y-50.895
X123.322Y-90.895
X123.322Y-130.895
X123.323Y-52.381
X123.323Y-92.382
X123.323Y-132.381
X124.192Y-54.446
X124.192Y-94.446
X124.192Y-134.446
X124.304Y-46.976
X124.304Y-86.977
X124.304Y-126.976
X125.799Y-42.711
X125.799Y-82.711
X125.799Y-122.711
X125.805Y-54.597
X125.805Y-94.597
X125.805Y-134.597
X127.39Y-42.589
X127.39Y-82.589
X127.39Y-122.589
X127.496Y-55.672
X127.496Y-95.672
X127.496Y-135.672
X127.829Y-53.15
X127.829Y-93.15
X127.829Y-133.15
X128.686Y-52.769
X128.686Y-92.769
X128.686Y-132.769
X130.545Y-48.975
X130.545Y-88.975
X130.545Y-128.975
X131.528Y-47.026
X131.528Y-87.026
X131.528Y-127.026
X132.434Y-50.125
X132.434Y-90.125
X132.434Y-130.125
X132.447Y-51.741
X132.447Y-91.741
X132.447Y-131.741
X132.584Y-40.511
X132.584Y-80.511
X132.584Y-120.511
X133.517Y-43.995
X133.517Y-83.995
X133.517Y-123.995
X134.457Y-47.62
X134.457Y-87.62
X134.457Y-127.62
X134.981Y-54.226
X134.981Y-94.226
X134.981Y-134.226
X137.404Y-40.285
X137.404Y-80.284
X137.404Y-120.284
X137.499Y-36.558
X137.499Y-76.558
X137.499Y-116.558
X137.585Y-54.172
X137.585Y-94.172
X137.585Y-134.172
X138.417Y-42.189
X138.417Y-82.189
X138.417Y-122.189
X139.305Y-51.988
X139.305Y-91.988
X139.305Y-131.988
X139.332Y-50.487
X139.332Y-90.487
X139.332Y-130.487
X139.384Y-42.205
X139.384Y-82.205
X139.384Y-122.205
X139.414Y-39.731
X139.414Y-79.731
X139.414Y-119.731
X160.752Y-36.681
X160.752Y-76.681
X160.752Y-116.681
X164.03Y-51.496
X164.03Y-91.496
X164.03Y-131.496
X164.736Y-57.241
X164.736Y-97.241
X164.736Y-137.241
X165.083Y-55.465
X165.083Y-95.465
X165.083Y-135.465
X165.291Y-44.751
X165.291Y-84.751
X165.291Y-124.751
X165.348Y-50.105
X165.348Y-90.105
X165.348Y-130.105
X168.058Y-54.041
X168.058Y-94.041
X168.058Y-134.041
X168.462Y-39.581
X168.462Y-79.581
X168.462Y-119.581
X168.54Y-48.459
X168.54Y-88.459
X168.54Y-128.459
X169.296Y-48.472
X169.296Y-88.472
X169.296Y-128.472
X169.642Y-56.837
X169.642Y-96.837
X169.642Y-136.837
X169.725Y-40.252
X169.725Y-80.252
X169.725Y-120.252
X169.945Y-57.677
X169.945Y-97.677
X169.945Y-137.677
X170.258Y-38.233
X170.258Y-78.233
X170.258Y-118.233
X170.31Y-41.194
X170.31Y-81.194
X170.31Y-121.194
X171.031Y-50.165
X171.031Y-90.165
X171.031Y-130.165
X171.512Y-42.147
X171.512Y-82.147
X171.512Y-122.147
X171.648Y-38.154
X171.648Y-78.153
X171.648Y-118.153
X172.348Y-42.735
X172.348Y-82.735
X172.348Y-122.735
X172.67Y-36.93
X172.67Y-76.93
X172.67Y-116.93
X172.739Y-57.779
X172.739Y-97.779
X172.739Y-137.779
X173.148Y-51.771
X173.148Y-91.771
X173.148Y-131.771
X173.7Y-57.774
X173.7Y-97.774
X173.7Y-137.774
X173.733Y-42.192
X173.733Y-82.192
X173.733Y-122.192
X173.816Y-37.232
X173.816Y-77.232
X173.816Y-117.232
X174.149Y-54.976
X174.149Y-94.976
X174.149Y-134.976
X174.464Y-42.004
X174.464Y-82.004
X174.464Y-122.004
X174.77Y-37.289
X174.77Y-77.289
X174.77Y-117.289
X174.8Y-57.35
X174.8Y-97.35
X174.8Y-137.35
X175.065Y-42.588
X175.065Y-82.588
X175.065Y-122.588
X175.367Y-37.886
X175.367Y-77.885
X175.367Y-117.885
X175.665Y-42.102
X175.665Y-82.102
X175.665Y-122.102
X176.249Y-42.623
X176.249Y-82.623
X176.249Y-122.623
X176.865Y-42.161
X176.865Y-82.161
X176.865Y-122.161
X177.866Y-42.364
X177.866Y-82.364
X177.866Y-122.364
X178.462Y-43.872
X178.462Y-83.872
X178.462Y-123.872
X179.019Y-38.03
X179.019Y-78.031
X179.019Y-118.03
X179.157Y-41.279
X179.157Y-81.279
X179.157Y-121.279
X180.025Y-45.027
X180.025Y-85.027
X180.025Y-125.027
X180.835Y-49.03
X180.835Y-89.03
X180.835Y-129.03
X181.107Y-48.125
X181.107Y-88.126
X181.107Y-128.125
X181.448Y-43.506
X181.448Y-83.507
X181.448Y-123.506
X181.561Y-54.32
X181.561Y-94.32
X181.561Y-134.32
X181.681Y-53.473
X181.681Y-93.474
X181.681Y-133.474
X181.737Y-56.569
X181.737Y-96.569
X181.737Y-136.57
X181.987Y-47.511
X181.987Y-87.511
X181.987Y-127.511
X183.046Y-49.231
X183.046Y-89.231
X183.046Y-129.231
X183.052Y-54.625
X183.052Y-94.626
X183.052Y-134.625
X183.321Y-50.895
X183.321Y-90.895
X183.321Y-130.895
X183.323Y-52.381
X183.323Y-92.382
X183.323Y-132.381
X184.192Y-54.446
X184.192Y-94.446
X184.192Y-134.446
X184.304Y-46.976
X184.304Y-86.977
X184.304Y-126.976
X185.799Y-42.711
X185.799Y-82.711
X185.799Y-122.711
X185.805Y-54.597
X185.805Y-94.597
X185.805Y-134.597
X187.39Y-42.589
X187.39Y-82.589
X187.39Y-122.589
X187.496Y-55.672
X187.496Y-95.672
X187.496Y-135.672
X187.829Y-53.15
X187.829Y-93.15
X187.829Y-133.15
X188.686Y-52.769
X188.686Y-92.769
X188.686Y-132.769
X190.545Y-48.975
X190.545Y-88.975
X190.545Y-128.975
X191.528Y-47.026
X191.528Y-87.026
X191.528Y-127.026
X192.434Y-50.125
X192.434Y-90.125
X192.434Y-130.125
X192.447Y-51.741
X192.447Y-91.741
X192.447Y-131.741
X192.584Y-40.511
X192.584Y-80.511
X192.584Y-120.511
X193.517Y-43.995
X193.517Y-83.995
X193.517Y-123.995
X194.457Y-47.62
X194.457Y-87.62
X194.457Y-127.62
X194.981Y-54.226
X194.981Y-94.226
X194.981Y-134.226
X197.404Y-40.285
X197.404Y-80.284
X197.404Y-120.284
X197.499Y-36.558
X197.499Y-76.558
X197.499Y-116.558
X197.585Y-54.172
X197.585Y-94.172
X197.585Y-134.172
X198.417Y-42.189
X198.417Y-82.189
X198.417Y-122.189
X199.305Y-51.988
X199.305Y-91.988
X199.305Y-131.988
X199.332Y-50.487
X199.332Y-90.487
X199.332Y-130.487
X199.384Y-42.205
X199.384Y-82.205
X199.384Y-122.205
X199.414Y-39.731
X199.414Y-79.731
X199.414Y-119.731
T3
X101.35Y-38.82
X101.35Y-39.62
X101.35Y-40.42
X101.35Y-42.02
X101.35Y-42.82
X101.35Y-43.62
X101.35Y-51.32
X101.35Y-52.12
X101.35Y-52.92
X101.35Y-54.52
X101.35Y-55.32
X101.35Y-56.12
X101.35Y-78.82
X101.35Y-79.62
X101.35Y-80.42
X101.35Y-82.02
X101.35Y-82.82
X101.35Y-83.62
X101.35Y-91.32
X101.35Y-92.12
X101.35Y-92.92
X101.35Y-94.52
X101.35Y-95.32
X101.35Y-96.12
X101.35Y-118.82
X101.35Y-119.62
X101.35Y-120.42
X101.35Y-122.02
X101.35Y-122.82
X101.35Y-123.62
X101.35Y-131.32
X101.35Y-132.12
X101.35Y-132.92
X101.35Y-134.52
X101.35Y-135.32
X101.35Y-136.12
X102.05Y-38.17
X102.05Y-40.02
X102.05Y-40.82
X102.05Y-41.62
X102.05Y-42.42
X102.05Y-44.27
X102.05Y-50.67
X102.05Y-52.52
X102.05Y-53.32
X102.05Y-54.12
X102.05Y-54.92
X102.05Y-56.77
X102.05Y-78.17
X102.05Y-80.02
X102.05Y-80.82
X102.05Y-81.62
X102.05Y-82.42
X102.05Y-84.27
X102.05Y-90.67
X102.05Y-92.52
X102.05Y-93.32
X102.05Y-94.12
X102.05Y-94.92
X102.05Y-96.77
X102.05Y-118.17
X102.05Y-120.02
X102.05Y-120.82
X102.05Y-121.62
X102.05Y-122.42
X102.05Y-124.27
X102.05Y-130.67
X102.05Y-132.52
X102.05Y-133.32
X102.05Y-134.12
X102.05Y-134.92
X102.05Y-136.77
X161.35Y-38.82
X161.35Y-39.62
X161.35Y-40.42
X161.35Y-42.02
X161.35Y-42.82
X161.35Y-43.62
X161.35Y-51.32
X161.35Y-52.12
X161.35Y-52.92
X161.35Y-54.52
X161.35Y-55.32
X161.35Y-56.12
X161.35Y-78.82
X161.35Y-79.62
X161.35Y-80.42
X161.35Y-82.02
X161.35Y-82.82
X161.35Y-83.62
X161.35Y-91.32
X161.35Y-92.12
X161.35Y-92.92
X161.35Y-94.52
X161.35Y-95.32
X161.35Y-96.12
X161.35Y-118.82
X161.35Y-119.62
X161.35Y-120.42
X161.35Y-122.02
X161.35Y-122.82
X161.35Y-123.62
X161.35Y-131.32
X161.35Y-132.12
X161.35Y-132.92
X161.35Y-134.52
X161.35Y-135.32
X161.35Y-136.12
X162.05Y-38.17
X162.05Y-40.02
X162.05Y-40.82
X162.05Y-41.62
X162.05Y-42.42
X162.05Y-44.27
X162.05Y-50.67
X162.05Y-52.52
X162.05Y-53.32
X162.05Y-54.12
X162.05Y-54.92
X162.05Y-56.77
X162.05Y-78.17
X162.05Y-80.02
X162.05Y-80.82
X162.05Y-81.62
X162.05Y-82.42
X162.05Y-84.27
X162.05Y-90.67
X162.05Y-92.52
X162.05Y-93.32
X162.05Y-94.12
X162.05Y-94.92
X162.05Y-96.77
X162.05Y-118.17
X162.05Y-120.02
X162.05Y-120.82
X162.05Y-121.62
X162.05Y-122.42
X162.05Y-124.27
X162.05Y-130.67
X162.05Y-132.52
X162.05Y-133.32
X162.05Y-134.12
X162.05Y-134.92
X162.05Y-136.77
T5
X130.274Y-39.463
X130.274Y-40.733
X130.274Y-42.003
X130.274Y-79.463
X130.274Y-80.733
X130.274Y-82.003
X130.274Y-119.463
X130.274Y-120.733
X130.274Y-122.003
X190.274Y-39.463
X190.274Y-40.733
X190.274Y-42.003
X190.274Y-79.463
X190.274Y-80.733
X190.274Y-82.003
X190.274Y-119.463
X190.274Y-120.733
X190.274Y-122.003
T6
X106.999Y-51.099
X106.999Y-91.099
X106.999Y-131.099
X166.999Y-51.099
X166.999Y-91.099
X166.999Y-131.099
T4
G00X97.65Y-36.72
M15
G01X96.85Y-36.72
M16
G05
G00X97.65Y-45.72
M15
G01X96.85Y-45.72
M16
G05
G00X97.65Y-49.22
M15
G01X96.85Y-49.22
M16
G05
G00X97.65Y-58.22
M15
G01X96.85Y-58.22
M16
G05
G00X97.65Y-76.72
M15
G01X96.85Y-76.72
M16
G05
G00X97.65Y-85.72
M15
G01X96.85Y-85.72
M16
G05
G00X97.65Y-89.22
M15
G01X96.85Y-89.22
M16
G05
G00X97.65Y-98.22
M15
G01X96.85Y-98.22
M16
G05
G00X97.65Y-116.72
M15
G01X96.85Y-116.72
M16
G05
G00X97.65Y-125.72
M15
G01X96.85Y-125.72
M16
G05
G00X97.65Y-129.22
M15
G01X96.85Y-129.22
M16
G05
G00X97.65Y-138.22
M15
G01X96.85Y-138.22
M16
G05
G00X103.15Y-36.72
M15
G01X102.55Y-36.72
M16
G05
G00X103.15Y-45.72
M15
G01X102.55Y-45.72
M16
G05
G00X103.15Y-49.22
M15
G01X102.55Y-49.22
M16
G05
G00X103.15Y-58.22
M15
G01X102.55Y-58.22
M16
G05
G00X103.15Y-76.72
M15
G01X102.55Y-76.72
M16
G05
G00X103.15Y-85.72
M15
G01X102.55Y-85.72
M16
G05
G00X103.15Y-89.22
M15
G01X102.55Y-89.22
M16
G05
G00X103.15Y-98.22
M15
G01X102.55Y-98.22
M16
G05
G00X103.15Y-116.72
M15
G01X102.55Y-116.72
M16
G05
G00X103.15Y-125.72
M15
G01X102.55Y-125.72
M16
G05
G00X103.15Y-129.22
M15
G01X102.55Y-129.22
M16
G05
G00X103.15Y-138.22
M15
G01X102.55Y-138.22
M16
G05
G00X157.65Y-36.72
M15
G01X156.85Y-36.72
M16
G05
G00X157.65Y-45.72
M15
G01X156.85Y-45.72
M16
G05
G00X157.65Y-49.22
M15
G01X156.85Y-49.22
M16
G05
G00X157.65Y-58.22
M15
G01X156.85Y-58.22
M16
G05
G00X157.65Y-76.72
M15
G01X156.85Y-76.72
M16
G05
G00X157.65Y-85.72
M15
G01X156.85Y-85.72
M16
G05
G00X157.65Y-89.22
M15
G01X156.85Y-89.22
M16
G05
G00X157.65Y-98.22
M15
G01X156.85Y-98.22
M16
G05
G00X157.65Y-116.72
M15
G01X156.85Y-116.72
M16
G05
G00X157.65Y-125.72
M15
G01X156.85Y-125.72
M16
G05
G00X157.65Y-129.22
M15
G01X156.85Y-129.22
M16
G05
G00X157.65Y-138.22
M15
G01X156.85Y-138.22
M16
G05
G00X163.15Y-36.72
M15
G01X162.55Y-36.72
M16
G05
G00X163.15Y-45.72
M15
G01X162.55Y-45.72
M16
G05
G00X163.15Y-49.22
M15
G01X162.55Y-49.22
M16
G05
G00X163.15Y-58.22
M15
G01X162.55Y-58.22
M16
G05
G00X163.15Y-76.72
M15
G01X162.55Y-76.72
M16
G05
G00X163.15Y-85.72
M15
G01X162.55Y-85.72
M16
G05
G00X163.15Y-89.22
M15
G01X162.55Y-89.22
M16
G05
G00X163.15Y-98.22
M15
G01X162.55Y-98.22
M16
G05
G00X163.15Y-116.72
M15
G01X162.55Y-116.72
M16
G05
G00X163.15Y-125.72
M15
G01X162.55Y-125.72
M16
G05
G00X163.15Y-129.22
M15
G01X162.55Y-129.22
M16
G05
G00X163.15Y-138.22
M15
G01X162.55Y-138.22
M16
G05
T0
M30
