G04 #@! TF.GenerationSoftware,KiCad,Pcbnew,7.0.7*
G04 #@! TF.CreationDate,2024-04-05T11:51:01+02:00*
G04 #@! TF.ProjectId,Versa_ECG_PPG_panel,56657273-615f-4454-9347-5f5050475f70,00*
G04 #@! TF.SameCoordinates,Original*
G04 #@! TF.FileFunction,Soldermask,Bot*
G04 #@! TF.FilePolarity,Negative*
%FSLAX46Y46*%
G04 Gerber Fmt 4.6, Leading zero omitted, Abs format (unit mm)*
G04 Created by KiCad (PCBNEW 7.0.7) date 2024-04-05 11:51:01*
%MOMM*%
%LPD*%
G01*
G04 APERTURE LIST*
G04 Aperture macros list*
%AMRoundRect*
0 Rectangle with rounded corners*
0 $1 Rounding radius*
0 $2 $3 $4 $5 $6 $7 $8 $9 X,Y pos of 4 corners*
0 Add a 4 corners polygon primitive as box body*
4,1,4,$2,$3,$4,$5,$6,$7,$8,$9,$2,$3,0*
0 Add four circle primitives for the rounded corners*
1,1,$1+$1,$2,$3*
1,1,$1+$1,$4,$5*
1,1,$1+$1,$6,$7*
1,1,$1+$1,$8,$9*
0 Add four rect primitives between the rounded corners*
20,1,$1+$1,$2,$3,$4,$5,0*
20,1,$1+$1,$4,$5,$6,$7,0*
20,1,$1+$1,$6,$7,$8,$9,0*
20,1,$1+$1,$8,$9,$2,$3,0*%
G04 Aperture macros list end*
%ADD10C,0.500000*%
%ADD11C,1.500000*%
%ADD12C,2.500000*%
%ADD13C,0.650000*%
%ADD14C,0.854000*%
%ADD15O,2.204000X1.204000*%
%ADD16R,1.000000X1.000000*%
%ADD17C,1.000000*%
%ADD18RoundRect,0.135000X-0.185000X0.135000X-0.185000X-0.135000X0.185000X-0.135000X0.185000X0.135000X0*%
%ADD19RoundRect,0.135000X-0.135000X-0.185000X0.135000X-0.185000X0.135000X0.185000X-0.135000X0.185000X0*%
%ADD20RoundRect,0.225000X0.225000X0.250000X-0.225000X0.250000X-0.225000X-0.250000X0.225000X-0.250000X0*%
%ADD21RoundRect,0.135000X0.135000X0.185000X-0.135000X0.185000X-0.135000X-0.185000X0.135000X-0.185000X0*%
%ADD22RoundRect,0.225000X-0.225000X-0.250000X0.225000X-0.250000X0.225000X0.250000X-0.225000X0.250000X0*%
%ADD23R,0.300000X0.250000*%
%ADD24R,2.100000X2.550000*%
%ADD25RoundRect,0.225000X-0.250000X0.225000X-0.250000X-0.225000X0.250000X-0.225000X0.250000X0.225000X0*%
%ADD26R,0.250000X1.800000*%
%ADD27R,0.750000X1.800000*%
%ADD28R,0.300000X0.670000*%
%ADD29R,0.300000X0.500000*%
%ADD30R,0.350000X1.000000*%
G04 APERTURE END LIST*
D10*
X96000000Y-22038462D03*
D11*
X83500000Y-152500000D03*
D10*
X176040642Y-139900000D03*
X176040642Y-115100000D03*
X178612071Y-115100000D03*
X150642857Y-35000000D03*
X151000000Y-110000000D03*
X84730770Y-35000000D03*
X121183500Y-115100000D03*
X213115384Y-35000000D03*
X96000000Y-25423077D03*
X140900000Y-88613214D03*
X140900000Y-45184643D03*
X116897786Y-115100000D03*
X148928571Y-35000000D03*
X177754928Y-115100000D03*
X96000000Y-22884616D03*
X140900000Y-126898928D03*
X119469214Y-115100000D03*
X90653847Y-140000000D03*
X85576924Y-35000000D03*
X151000000Y-68333333D03*
X116040643Y-59900000D03*
X140900000Y-49470357D03*
X96000000Y-107928571D03*
X148500000Y-110000000D03*
X201000000Y-69642857D03*
X146000000Y-105833333D03*
D12*
X123800000Y-137180000D03*
D10*
X140900000Y-46898929D03*
X147666666Y-65000000D03*
X181183500Y-75100000D03*
X140900000Y-84327500D03*
X96000000Y-23730770D03*
X116897786Y-59900000D03*
D11*
X213500000Y-22500000D03*
D10*
X213961538Y-140000000D03*
X200900000Y-124327500D03*
X146833333Y-65000000D03*
X146000000Y-70000000D03*
X149333333Y-70000000D03*
X118612071Y-139900000D03*
X96000000Y-20346154D03*
X117754929Y-115100000D03*
X177754928Y-139900000D03*
X120326357Y-115100000D03*
X82192308Y-35000000D03*
X208884615Y-35000000D03*
X176040642Y-75100000D03*
X96000000Y-147884615D03*
X176040642Y-59900000D03*
X86423077Y-140000000D03*
X200900000Y-126898928D03*
X147666666Y-110000000D03*
X96000000Y-152961538D03*
X200900000Y-48613214D03*
X119469214Y-35100000D03*
D13*
X101350000Y-37495000D03*
X101350000Y-44945000D03*
D14*
X102050000Y-44270000D03*
X101350000Y-43620000D03*
X101350000Y-42820000D03*
X102050000Y-42420000D03*
X101350000Y-42020000D03*
X102050000Y-41620000D03*
X102050000Y-40820000D03*
X101350000Y-40420000D03*
X102050000Y-40020000D03*
X101350000Y-39620000D03*
X101350000Y-38820000D03*
X102050000Y-38170000D03*
D15*
X102850000Y-36720000D03*
X102850000Y-45720000D03*
X97250000Y-36720000D03*
X97250000Y-45720000D03*
D10*
X140900000Y-44327500D03*
X119469214Y-99900000D03*
X201000000Y-25423077D03*
X180326357Y-139900000D03*
X121183500Y-59900000D03*
X215653846Y-35000000D03*
X90653847Y-35000000D03*
X175183500Y-139900000D03*
X88115385Y-140000000D03*
X118612071Y-115100000D03*
X115183500Y-115100000D03*
X96000000Y-148730769D03*
X84730770Y-140000000D03*
X96000000Y-145346153D03*
X140900000Y-125184642D03*
X200900000Y-127756071D03*
X177754928Y-75100000D03*
X207192307Y-140000000D03*
X121183500Y-139900000D03*
X201000000Y-20346154D03*
X140900000Y-129470357D03*
X201000000Y-21192308D03*
X140900000Y-47756071D03*
X151000000Y-107500000D03*
X179469214Y-35100000D03*
X181183500Y-115100000D03*
X151000000Y-65833333D03*
X213115384Y-140000000D03*
X151000000Y-105000000D03*
D13*
X101350000Y-77495000D03*
X101350000Y-84945000D03*
D14*
X102050000Y-84270000D03*
X101350000Y-83620000D03*
X101350000Y-82820000D03*
X102050000Y-82420000D03*
X101350000Y-82020000D03*
X102050000Y-81620000D03*
X102050000Y-80820000D03*
X101350000Y-80420000D03*
X102050000Y-80020000D03*
X101350000Y-79620000D03*
X101350000Y-78820000D03*
X102050000Y-78170000D03*
D15*
X102850000Y-76720000D03*
X102850000Y-85720000D03*
X97250000Y-76720000D03*
X97250000Y-85720000D03*
D16*
X190274000Y-122003000D03*
D17*
X190274000Y-120733000D03*
X190274000Y-119463000D03*
D10*
X200900000Y-88613214D03*
X175183500Y-59900000D03*
X116897786Y-75100000D03*
X147214285Y-35000000D03*
X89807693Y-35000000D03*
X96000000Y-66214285D03*
X201000000Y-153807692D03*
X146000000Y-66666666D03*
X201000000Y-148730769D03*
X87269231Y-140000000D03*
X200900000Y-47756071D03*
X175183500Y-35100000D03*
X96000000Y-27961539D03*
X176897785Y-115100000D03*
X212269230Y-140000000D03*
X120326357Y-75100000D03*
X140900000Y-87756071D03*
X151000000Y-109166666D03*
X96000000Y-65357142D03*
X151000000Y-105000000D03*
X147666666Y-105000000D03*
X96000000Y-105357142D03*
X181183500Y-99900000D03*
X117754929Y-59900000D03*
X96000000Y-107071428D03*
X96000000Y-26269231D03*
X200900000Y-86041785D03*
X200900000Y-89470357D03*
X181183500Y-139900000D03*
X176897785Y-75100000D03*
X200900000Y-90327500D03*
X177754928Y-59900000D03*
X180326357Y-115100000D03*
X206346153Y-35000000D03*
D16*
X130274000Y-42003000D03*
D17*
X130274000Y-40733000D03*
X130274000Y-39463000D03*
D10*
X201000000Y-151269230D03*
D12*
X123800000Y-117820000D03*
D10*
X201000000Y-147038461D03*
X121183500Y-35100000D03*
X146000000Y-69166666D03*
X211423076Y-35000000D03*
X200900000Y-45184643D03*
X150642857Y-140000000D03*
X146000000Y-67500000D03*
X140900000Y-86041785D03*
X115183500Y-59900000D03*
X96000000Y-29653847D03*
D13*
X101350000Y-117495000D03*
X101350000Y-124945000D03*
D14*
X102050000Y-124270000D03*
X101350000Y-123620000D03*
X101350000Y-122820000D03*
X102050000Y-122420000D03*
X101350000Y-122020000D03*
X102050000Y-121620000D03*
X102050000Y-120820000D03*
X101350000Y-120420000D03*
X102050000Y-120020000D03*
X101350000Y-119620000D03*
X101350000Y-118820000D03*
X102050000Y-118170000D03*
D15*
X102850000Y-116720000D03*
X102850000Y-125720000D03*
X97250000Y-116720000D03*
X97250000Y-125720000D03*
D10*
X96000000Y-151269230D03*
D12*
X183800000Y-137180000D03*
D10*
X96000000Y-106214285D03*
X210576923Y-35000000D03*
X146000000Y-105000000D03*
X120326357Y-59900000D03*
X146833333Y-105000000D03*
X140900000Y-46041786D03*
X117754929Y-99900000D03*
X176897785Y-139900000D03*
X151000000Y-106666666D03*
X151000000Y-105833333D03*
X146000000Y-65000000D03*
X140900000Y-126041785D03*
X151000000Y-70000000D03*
X200900000Y-46898929D03*
X209730769Y-35000000D03*
X117754929Y-75100000D03*
X140900000Y-50327500D03*
X96000000Y-152115384D03*
X181183500Y-35100000D03*
X206346153Y-140000000D03*
X116040643Y-35100000D03*
X116897786Y-99900000D03*
X201000000Y-147884615D03*
X200900000Y-130327500D03*
X146357142Y-35000000D03*
X201000000Y-152961538D03*
D12*
X183800000Y-117820000D03*
D10*
X200900000Y-85184642D03*
X148071428Y-35000000D03*
X140900000Y-124327500D03*
D12*
X183800000Y-57180000D03*
D10*
X201000000Y-108785714D03*
X180326357Y-59900000D03*
X117754929Y-35100000D03*
D11*
X83500000Y-22500000D03*
D10*
X151000000Y-69166666D03*
X151000000Y-65000000D03*
X177754928Y-99900000D03*
X96000000Y-146192307D03*
X83038462Y-35000000D03*
X175183500Y-115100000D03*
X146000000Y-110000000D03*
X85576924Y-140000000D03*
X140900000Y-127756071D03*
X96000000Y-69642857D03*
X96000000Y-24576924D03*
X121183500Y-99900000D03*
X201000000Y-29653847D03*
X179469214Y-115100000D03*
X146000000Y-109166666D03*
X201000000Y-154653846D03*
X116040643Y-139900000D03*
X211423076Y-140000000D03*
D13*
X161350000Y-117495000D03*
X161350000Y-124945000D03*
D14*
X162050000Y-124270000D03*
X161350000Y-123620000D03*
X161350000Y-122820000D03*
X162050000Y-122420000D03*
X161350000Y-122020000D03*
X162050000Y-121620000D03*
X162050000Y-120820000D03*
X161350000Y-120420000D03*
X162050000Y-120020000D03*
X161350000Y-119620000D03*
X161350000Y-118820000D03*
X162050000Y-118170000D03*
D15*
X162850000Y-116720000D03*
X162850000Y-125720000D03*
X157250000Y-116720000D03*
X157250000Y-125720000D03*
D10*
X149333333Y-110000000D03*
X96000000Y-153807692D03*
X120326357Y-35100000D03*
X121183500Y-75100000D03*
X200900000Y-84327500D03*
X148500000Y-65000000D03*
X116897786Y-139900000D03*
X149785714Y-140000000D03*
X200900000Y-86898928D03*
X146833333Y-110000000D03*
X96000000Y-28807693D03*
X178612071Y-139900000D03*
X115183500Y-139900000D03*
D16*
X190274000Y-82003000D03*
D17*
X190274000Y-80733000D03*
X190274000Y-79463000D03*
D10*
X201000000Y-67928571D03*
X208038461Y-35000000D03*
X88115385Y-35000000D03*
X201000000Y-24576924D03*
X201000000Y-105357142D03*
X96000000Y-68785714D03*
X118612071Y-75100000D03*
X180326357Y-99900000D03*
X149785714Y-35000000D03*
X178612071Y-75100000D03*
X146000000Y-68333333D03*
X178612071Y-99900000D03*
X96000000Y-108785714D03*
D12*
X123800000Y-37820000D03*
D10*
X209730769Y-140000000D03*
X200900000Y-87756071D03*
X179469214Y-139900000D03*
X96000000Y-21192308D03*
D13*
X101350000Y-49995000D03*
X101350000Y-57445000D03*
D14*
X102050000Y-56770000D03*
X101350000Y-56120000D03*
X101350000Y-55320000D03*
X102050000Y-54920000D03*
X101350000Y-54520000D03*
X102050000Y-54120000D03*
X102050000Y-53320000D03*
X101350000Y-52920000D03*
X102050000Y-52520000D03*
X101350000Y-52120000D03*
X101350000Y-51320000D03*
X102050000Y-50670000D03*
D15*
X102850000Y-49220000D03*
X102850000Y-58220000D03*
X97250000Y-49220000D03*
X97250000Y-58220000D03*
D10*
X119469214Y-139900000D03*
X200900000Y-128613214D03*
X201000000Y-22038462D03*
X96000000Y-147038461D03*
X214807692Y-35000000D03*
X201000000Y-145346153D03*
X81346154Y-140000000D03*
X149333333Y-65000000D03*
X215653846Y-140000000D03*
D16*
X130274000Y-122003000D03*
D17*
X130274000Y-120733000D03*
X130274000Y-119463000D03*
D12*
X123800000Y-77820000D03*
D10*
X201000000Y-27115385D03*
X177754928Y-35100000D03*
X150166666Y-70000000D03*
X140900000Y-89470357D03*
X201000000Y-146192307D03*
X118612071Y-59900000D03*
X200900000Y-50327500D03*
X82192308Y-140000000D03*
X201000000Y-28807693D03*
X119469214Y-75100000D03*
X86423077Y-35000000D03*
D13*
X101350000Y-89995000D03*
X101350000Y-97445000D03*
D14*
X102050000Y-96770000D03*
X101350000Y-96120000D03*
X101350000Y-95320000D03*
X102050000Y-94920000D03*
X101350000Y-94520000D03*
X102050000Y-94120000D03*
X102050000Y-93320000D03*
X101350000Y-92920000D03*
X102050000Y-92520000D03*
X101350000Y-92120000D03*
X101350000Y-91320000D03*
X102050000Y-90670000D03*
D15*
X102850000Y-89220000D03*
X102850000Y-98220000D03*
X97250000Y-89220000D03*
X97250000Y-98220000D03*
D10*
X214807692Y-140000000D03*
X151000000Y-67500000D03*
X201000000Y-67071428D03*
X146000000Y-107500000D03*
X151000000Y-66666666D03*
X201000000Y-109642857D03*
X96000000Y-27115385D03*
X140900000Y-128613214D03*
X175183500Y-75100000D03*
D13*
X161350000Y-37495000D03*
X161350000Y-44945000D03*
D14*
X162050000Y-44270000D03*
X161350000Y-43620000D03*
X161350000Y-42820000D03*
X162050000Y-42420000D03*
X161350000Y-42020000D03*
X162050000Y-41620000D03*
X162050000Y-40820000D03*
X161350000Y-40420000D03*
X162050000Y-40020000D03*
X161350000Y-39620000D03*
X161350000Y-38820000D03*
X162050000Y-38170000D03*
D15*
X162850000Y-36720000D03*
X162850000Y-45720000D03*
X157250000Y-36720000D03*
X157250000Y-45720000D03*
D10*
X201000000Y-27961539D03*
X179469214Y-59900000D03*
D12*
X183800000Y-37820000D03*
D10*
X176897785Y-35100000D03*
D13*
X101350000Y-129995000D03*
X101350000Y-137445000D03*
D14*
X102050000Y-136770000D03*
X101350000Y-136120000D03*
X101350000Y-135320000D03*
X102050000Y-134920000D03*
X101350000Y-134520000D03*
X102050000Y-134120000D03*
X102050000Y-133320000D03*
X101350000Y-132920000D03*
X102050000Y-132520000D03*
X101350000Y-132120000D03*
X101350000Y-131320000D03*
X102050000Y-130670000D03*
D15*
X102850000Y-129220000D03*
X102850000Y-138220000D03*
X97250000Y-129220000D03*
X97250000Y-138220000D03*
D13*
X161350000Y-77495000D03*
X161350000Y-84945000D03*
D14*
X162050000Y-84270000D03*
X161350000Y-83620000D03*
X161350000Y-82820000D03*
X162050000Y-82420000D03*
X161350000Y-82020000D03*
X162050000Y-81620000D03*
X162050000Y-80820000D03*
X161350000Y-80420000D03*
X162050000Y-80020000D03*
X161350000Y-79620000D03*
X161350000Y-78820000D03*
X162050000Y-78170000D03*
D15*
X162850000Y-76720000D03*
X162850000Y-85720000D03*
X157250000Y-76720000D03*
X157250000Y-85720000D03*
D10*
X116040643Y-115100000D03*
X147214285Y-140000000D03*
X118612071Y-99900000D03*
X179469214Y-99900000D03*
X117754929Y-139900000D03*
D13*
X161350000Y-129995000D03*
X161350000Y-137445000D03*
D14*
X162050000Y-136770000D03*
X161350000Y-136120000D03*
X161350000Y-135320000D03*
X162050000Y-134920000D03*
X161350000Y-134520000D03*
X162050000Y-134120000D03*
X162050000Y-133320000D03*
X161350000Y-132920000D03*
X162050000Y-132520000D03*
X161350000Y-132120000D03*
X161350000Y-131320000D03*
X162050000Y-130670000D03*
D15*
X162850000Y-129220000D03*
X162850000Y-138220000D03*
X157250000Y-129220000D03*
X157250000Y-138220000D03*
D10*
X87269231Y-35000000D03*
X89807693Y-140000000D03*
X200900000Y-49470357D03*
X207192307Y-35000000D03*
X200900000Y-126041785D03*
X116040643Y-99900000D03*
X96000000Y-154653846D03*
X88961539Y-140000000D03*
X150166666Y-110000000D03*
D13*
X161350000Y-49995000D03*
X161350000Y-57445000D03*
D14*
X162050000Y-56770000D03*
X161350000Y-56120000D03*
X161350000Y-55320000D03*
X162050000Y-54920000D03*
X161350000Y-54520000D03*
X162050000Y-54120000D03*
X162050000Y-53320000D03*
X161350000Y-52920000D03*
X162050000Y-52520000D03*
X161350000Y-52120000D03*
X161350000Y-51320000D03*
X162050000Y-50670000D03*
D15*
X162850000Y-49220000D03*
X162850000Y-58220000D03*
X157250000Y-49220000D03*
X157250000Y-58220000D03*
D10*
X115183500Y-35100000D03*
X150166666Y-65000000D03*
X176897785Y-59900000D03*
X150166666Y-105000000D03*
X201000000Y-149576923D03*
X176040642Y-99900000D03*
X201000000Y-107928571D03*
X146000000Y-65833333D03*
X178612071Y-59900000D03*
X179469214Y-75100000D03*
X208038461Y-140000000D03*
X146000000Y-105000000D03*
X148500000Y-70000000D03*
X81346154Y-35000000D03*
X115183500Y-99900000D03*
X116040643Y-75100000D03*
X210576923Y-140000000D03*
X96000000Y-150423076D03*
X146000000Y-106666666D03*
X212269230Y-35000000D03*
D12*
X123800000Y-57180000D03*
D10*
X146357142Y-140000000D03*
X96000000Y-67928571D03*
X176040642Y-35100000D03*
D12*
X123800000Y-97180000D03*
D10*
X175183500Y-99900000D03*
X200900000Y-44327500D03*
X201000000Y-152115384D03*
X180326357Y-75100000D03*
X149333333Y-105000000D03*
X178612071Y-35100000D03*
D12*
X183800000Y-77820000D03*
D10*
X213961538Y-35000000D03*
X201000000Y-68785714D03*
X208884615Y-140000000D03*
X96000000Y-149576923D03*
X116897786Y-35100000D03*
X146000000Y-110000000D03*
X83884616Y-35000000D03*
X201000000Y-107071428D03*
X118612071Y-35100000D03*
D16*
X130274000Y-82003000D03*
D17*
X130274000Y-80733000D03*
X130274000Y-79463000D03*
D10*
X119469214Y-59900000D03*
X148071428Y-140000000D03*
X201000000Y-65357142D03*
X146833333Y-70000000D03*
X201000000Y-66214285D03*
D16*
X190274000Y-42003000D03*
D17*
X190274000Y-40733000D03*
X190274000Y-39463000D03*
D10*
X200900000Y-46041786D03*
X83038462Y-140000000D03*
X96000000Y-67071428D03*
X140900000Y-90327500D03*
X201000000Y-106214285D03*
D12*
X183800000Y-97180000D03*
D10*
X180326357Y-35100000D03*
X96000000Y-109642857D03*
X140900000Y-130327500D03*
X115183500Y-75100000D03*
X148928571Y-140000000D03*
X151000000Y-108333333D03*
D13*
X161350000Y-89995000D03*
X161350000Y-97445000D03*
D14*
X162050000Y-96770000D03*
X161350000Y-96120000D03*
X161350000Y-95320000D03*
X162050000Y-94920000D03*
X161350000Y-94520000D03*
X162050000Y-94120000D03*
X162050000Y-93320000D03*
X161350000Y-92920000D03*
X162050000Y-92520000D03*
X161350000Y-92120000D03*
X161350000Y-91320000D03*
X162050000Y-90670000D03*
D15*
X162850000Y-89220000D03*
X162850000Y-98220000D03*
X157250000Y-89220000D03*
X157250000Y-98220000D03*
D10*
X146000000Y-108333333D03*
X140900000Y-85184642D03*
X120326357Y-139900000D03*
X83884616Y-140000000D03*
X201000000Y-26269231D03*
X201000000Y-22884616D03*
X151000000Y-110000000D03*
X200900000Y-129470357D03*
X120326357Y-99900000D03*
X201000000Y-23730770D03*
X201000000Y-150423076D03*
X88961539Y-35000000D03*
X181183500Y-59900000D03*
X140900000Y-48613214D03*
X148500000Y-105000000D03*
X200900000Y-125184642D03*
X147666666Y-70000000D03*
X140900000Y-86898928D03*
X176897785Y-99900000D03*
D18*
X187467000Y-124175000D03*
X187467000Y-125195000D03*
D19*
X135872000Y-94230000D03*
X136892000Y-94230000D03*
D20*
X131140000Y-131940000D03*
X129590000Y-131940000D03*
D21*
X126453000Y-45144000D03*
X125433000Y-45144000D03*
D22*
X189590000Y-88813000D03*
X191140000Y-88813000D03*
D17*
X165483000Y-39960000D03*
D22*
X129590000Y-88813000D03*
X131140000Y-88813000D03*
D17*
X211000000Y-22500000D03*
D20*
X131140000Y-51940000D03*
X129590000Y-51940000D03*
D17*
X123736500Y-121404500D03*
D18*
X125812000Y-52857000D03*
X125812000Y-53877000D03*
D22*
X189590000Y-93846000D03*
X191140000Y-93846000D03*
D21*
X126453000Y-85144000D03*
X125433000Y-85144000D03*
D17*
X107278000Y-121376000D03*
X165983000Y-126725000D03*
D22*
X129590000Y-50376500D03*
X131140000Y-50376500D03*
D23*
X136082000Y-130050000D03*
X136082000Y-130550000D03*
X136082000Y-131050000D03*
X136082000Y-131550000D03*
X136082000Y-132050000D03*
D24*
X134432000Y-131050000D03*
D23*
X196082000Y-90050000D03*
X196082000Y-90550000D03*
X196082000Y-91050000D03*
X196082000Y-91550000D03*
X196082000Y-92050000D03*
D24*
X194432000Y-91050000D03*
D22*
X129590000Y-133846000D03*
X131140000Y-133846000D03*
X189590000Y-50376500D03*
X191140000Y-50376500D03*
D19*
X195872000Y-94230000D03*
X196892000Y-94230000D03*
D18*
X125812000Y-92857000D03*
X125812000Y-93877000D03*
D17*
X105983000Y-126725000D03*
D18*
X127467000Y-44175000D03*
X127467000Y-45195000D03*
D17*
X165983000Y-46725000D03*
X163895000Y-81721000D03*
D25*
X138237000Y-50448000D03*
X138237000Y-51998000D03*
X198237000Y-90448000D03*
X198237000Y-91998000D03*
D19*
X135872000Y-134230000D03*
X136892000Y-134230000D03*
D17*
X103895000Y-81721000D03*
X86000000Y-22500000D03*
D19*
X135872000Y-54230000D03*
X136892000Y-54230000D03*
D23*
X196082000Y-50050000D03*
X196082000Y-50550000D03*
X196082000Y-51050000D03*
X196082000Y-51550000D03*
X196082000Y-52050000D03*
D24*
X194432000Y-51050000D03*
D21*
X126453000Y-125144000D03*
X125433000Y-125144000D03*
D19*
X132677000Y-54227000D03*
X133697000Y-54227000D03*
D21*
X186453000Y-125144000D03*
X185433000Y-125144000D03*
D17*
X107278000Y-81376000D03*
X123736500Y-41404500D03*
D26*
X179146500Y-93564500D03*
X179146500Y-88564500D03*
X178646500Y-93564500D03*
X178646500Y-88564500D03*
X178146500Y-93564500D03*
X178146500Y-88564500D03*
X177646500Y-93564500D03*
X177646500Y-88564500D03*
X177146500Y-93564500D03*
X177146500Y-88564500D03*
X176646500Y-93564500D03*
X176646500Y-88564500D03*
X176146500Y-93564500D03*
X176146500Y-88564500D03*
X175646500Y-93564500D03*
X175646500Y-88564500D03*
X175146500Y-93564500D03*
X175146500Y-88564500D03*
X174646500Y-93564500D03*
X174646500Y-88564500D03*
D27*
X179896500Y-93564500D03*
X179896500Y-88564500D03*
X173896500Y-88564500D03*
X173896500Y-93564500D03*
D18*
X125812000Y-132857000D03*
X125812000Y-133877000D03*
D28*
X178675000Y-121400000D03*
D29*
X178375000Y-118335000D03*
D28*
X178075000Y-121400000D03*
D29*
X177775000Y-118335000D03*
D28*
X177475000Y-121400000D03*
D29*
X177175000Y-118335000D03*
D28*
X176875000Y-121400000D03*
D29*
X176575000Y-118335000D03*
D28*
X176275000Y-121400000D03*
D29*
X175975000Y-118335000D03*
D28*
X175675000Y-121400000D03*
D29*
X175375000Y-118335000D03*
D28*
X175075000Y-121400000D03*
D29*
X174775000Y-118335000D03*
D28*
X174475000Y-121400000D03*
D29*
X174175000Y-118335000D03*
D28*
X173875000Y-121400000D03*
D29*
X173575000Y-118335000D03*
D28*
X173275000Y-121400000D03*
D29*
X172975000Y-118335000D03*
D28*
X172675000Y-121400000D03*
D29*
X172375000Y-118335000D03*
D28*
X172075000Y-121400000D03*
D30*
X179650000Y-121135000D03*
X171100000Y-121135000D03*
D17*
X165983000Y-86725000D03*
D23*
X136082000Y-90050000D03*
X136082000Y-90550000D03*
X136082000Y-91050000D03*
X136082000Y-91550000D03*
X136082000Y-92050000D03*
D24*
X134432000Y-91050000D03*
D19*
X192677000Y-134227000D03*
X193697000Y-134227000D03*
D20*
X191140000Y-91940000D03*
X189590000Y-91940000D03*
D17*
X108831000Y-43274000D03*
X103895000Y-41721000D03*
X165483000Y-119960000D03*
D20*
X131140000Y-91940000D03*
X129590000Y-91940000D03*
D28*
X178675000Y-81400000D03*
D29*
X178375000Y-78335000D03*
D28*
X178075000Y-81400000D03*
D29*
X177775000Y-78335000D03*
D28*
X177475000Y-81400000D03*
D29*
X177175000Y-78335000D03*
D28*
X176875000Y-81400000D03*
D29*
X176575000Y-78335000D03*
D28*
X176275000Y-81400000D03*
D29*
X175975000Y-78335000D03*
D28*
X175675000Y-81400000D03*
D29*
X175375000Y-78335000D03*
D28*
X175075000Y-81400000D03*
D29*
X174775000Y-78335000D03*
D28*
X174475000Y-81400000D03*
D29*
X174175000Y-78335000D03*
D28*
X173875000Y-81400000D03*
D29*
X173575000Y-78335000D03*
D28*
X173275000Y-81400000D03*
D29*
X172975000Y-78335000D03*
D28*
X172675000Y-81400000D03*
D29*
X172375000Y-78335000D03*
D28*
X172075000Y-81400000D03*
D30*
X179650000Y-81135000D03*
X171100000Y-81135000D03*
D17*
X105983000Y-46725000D03*
D28*
X118675000Y-41400000D03*
D29*
X118375000Y-38335000D03*
D28*
X118075000Y-41400000D03*
D29*
X117775000Y-38335000D03*
D28*
X117475000Y-41400000D03*
D29*
X117175000Y-38335000D03*
D28*
X116875000Y-41400000D03*
D29*
X116575000Y-38335000D03*
D28*
X116275000Y-41400000D03*
D29*
X115975000Y-38335000D03*
D28*
X115675000Y-41400000D03*
D29*
X115375000Y-38335000D03*
D28*
X115075000Y-41400000D03*
D29*
X114775000Y-38335000D03*
D28*
X114475000Y-41400000D03*
D29*
X114175000Y-38335000D03*
D28*
X113875000Y-41400000D03*
D29*
X113575000Y-38335000D03*
D28*
X113275000Y-41400000D03*
D29*
X112975000Y-38335000D03*
D28*
X112675000Y-41400000D03*
D29*
X112375000Y-38335000D03*
D28*
X112075000Y-41400000D03*
D30*
X119650000Y-41135000D03*
X111100000Y-41135000D03*
D22*
X189590000Y-48813000D03*
X191140000Y-48813000D03*
D18*
X187467000Y-44175000D03*
X187467000Y-45195000D03*
D17*
X108831000Y-83274000D03*
D22*
X189590000Y-55420000D03*
X191140000Y-55420000D03*
D17*
X103895000Y-121721000D03*
X163895000Y-121721000D03*
X163895000Y-41721000D03*
D26*
X179146500Y-53564500D03*
X179146500Y-48564500D03*
X178646500Y-53564500D03*
X178646500Y-48564500D03*
X178146500Y-53564500D03*
X178146500Y-48564500D03*
X177646500Y-53564500D03*
X177646500Y-48564500D03*
X177146500Y-53564500D03*
X177146500Y-48564500D03*
X176646500Y-53564500D03*
X176646500Y-48564500D03*
X176146500Y-53564500D03*
X176146500Y-48564500D03*
X175646500Y-53564500D03*
X175646500Y-48564500D03*
X175146500Y-53564500D03*
X175146500Y-48564500D03*
X174646500Y-53564500D03*
X174646500Y-48564500D03*
D27*
X179896500Y-53564500D03*
X179896500Y-48564500D03*
X173896500Y-48564500D03*
X173896500Y-53564500D03*
D17*
X108831000Y-123274000D03*
X107278000Y-41376000D03*
X123736500Y-81404500D03*
D18*
X187467000Y-84175000D03*
X187467000Y-85195000D03*
D22*
X129590000Y-93846000D03*
X131140000Y-93846000D03*
D28*
X178675000Y-41400000D03*
D29*
X178375000Y-38335000D03*
D28*
X178075000Y-41400000D03*
D29*
X177775000Y-38335000D03*
D28*
X177475000Y-41400000D03*
D29*
X177175000Y-38335000D03*
D28*
X176875000Y-41400000D03*
D29*
X176575000Y-38335000D03*
D28*
X176275000Y-41400000D03*
D29*
X175975000Y-38335000D03*
D28*
X175675000Y-41400000D03*
D29*
X175375000Y-38335000D03*
D28*
X175075000Y-41400000D03*
D29*
X174775000Y-38335000D03*
D28*
X174475000Y-41400000D03*
D29*
X174175000Y-38335000D03*
D28*
X173875000Y-41400000D03*
D29*
X173575000Y-38335000D03*
D28*
X173275000Y-41400000D03*
D29*
X172975000Y-38335000D03*
D28*
X172675000Y-41400000D03*
D29*
X172375000Y-38335000D03*
D28*
X172075000Y-41400000D03*
D30*
X179650000Y-41135000D03*
X171100000Y-41135000D03*
D26*
X119146500Y-53564500D03*
X119146500Y-48564500D03*
X118646500Y-53564500D03*
X118646500Y-48564500D03*
X118146500Y-53564500D03*
X118146500Y-48564500D03*
X117646500Y-53564500D03*
X117646500Y-48564500D03*
X117146500Y-53564500D03*
X117146500Y-48564500D03*
X116646500Y-53564500D03*
X116646500Y-48564500D03*
X116146500Y-53564500D03*
X116146500Y-48564500D03*
X115646500Y-53564500D03*
X115646500Y-48564500D03*
X115146500Y-53564500D03*
X115146500Y-48564500D03*
X114646500Y-53564500D03*
X114646500Y-48564500D03*
D27*
X119896500Y-53564500D03*
X119896500Y-48564500D03*
X113896500Y-48564500D03*
X113896500Y-53564500D03*
D25*
X198237000Y-130448000D03*
X198237000Y-131998000D03*
D22*
X129590000Y-128813000D03*
X131140000Y-128813000D03*
D17*
X183736500Y-81404500D03*
D22*
X129590000Y-90376500D03*
X131140000Y-90376500D03*
X189590000Y-133846000D03*
X191140000Y-133846000D03*
D17*
X86000000Y-152500000D03*
D28*
X118675000Y-81400000D03*
D29*
X118375000Y-78335000D03*
D28*
X118075000Y-81400000D03*
D29*
X117775000Y-78335000D03*
D28*
X117475000Y-81400000D03*
D29*
X117175000Y-78335000D03*
D28*
X116875000Y-81400000D03*
D29*
X116575000Y-78335000D03*
D28*
X116275000Y-81400000D03*
D29*
X115975000Y-78335000D03*
D28*
X115675000Y-81400000D03*
D29*
X115375000Y-78335000D03*
D28*
X115075000Y-81400000D03*
D29*
X114775000Y-78335000D03*
D28*
X114475000Y-81400000D03*
D29*
X114175000Y-78335000D03*
D28*
X113875000Y-81400000D03*
D29*
X113575000Y-78335000D03*
D28*
X113275000Y-81400000D03*
D29*
X112975000Y-78335000D03*
D28*
X112675000Y-81400000D03*
D29*
X112375000Y-78335000D03*
D28*
X112075000Y-81400000D03*
D30*
X119650000Y-81135000D03*
X111100000Y-81135000D03*
D17*
X183736500Y-121404500D03*
D21*
X186453000Y-85144000D03*
X185433000Y-85144000D03*
D22*
X129590000Y-53846000D03*
X131140000Y-53846000D03*
D17*
X167278000Y-121376000D03*
D22*
X189590000Y-53846000D03*
X191140000Y-53846000D03*
D20*
X191140000Y-51940000D03*
X189590000Y-51940000D03*
D26*
X179146500Y-133564500D03*
X179146500Y-128564500D03*
X178646500Y-133564500D03*
X178646500Y-128564500D03*
X178146500Y-133564500D03*
X178146500Y-128564500D03*
X177646500Y-133564500D03*
X177646500Y-128564500D03*
X177146500Y-133564500D03*
X177146500Y-128564500D03*
X176646500Y-133564500D03*
X176646500Y-128564500D03*
X176146500Y-133564500D03*
X176146500Y-128564500D03*
X175646500Y-133564500D03*
X175646500Y-128564500D03*
X175146500Y-133564500D03*
X175146500Y-128564500D03*
X174646500Y-133564500D03*
X174646500Y-128564500D03*
D27*
X179896500Y-133564500D03*
X179896500Y-128564500D03*
X173896500Y-128564500D03*
X173896500Y-133564500D03*
D19*
X195872000Y-54230000D03*
X196892000Y-54230000D03*
D22*
X129590000Y-135420000D03*
X131140000Y-135420000D03*
X129590000Y-48813000D03*
X131140000Y-48813000D03*
D17*
X183736500Y-41404500D03*
X105483000Y-39960000D03*
D25*
X138237000Y-130448000D03*
X138237000Y-131998000D03*
D17*
X165483000Y-79960000D03*
X168831000Y-83274000D03*
D25*
X138237000Y-90448000D03*
X138237000Y-91998000D03*
D20*
X191140000Y-131940000D03*
X189590000Y-131940000D03*
D18*
X127467000Y-124175000D03*
X127467000Y-125195000D03*
D19*
X192677000Y-54227000D03*
X193697000Y-54227000D03*
D22*
X189590000Y-90376500D03*
X191140000Y-90376500D03*
X129590000Y-95420000D03*
X131140000Y-95420000D03*
D17*
X105483000Y-79960000D03*
X167278000Y-41376000D03*
D22*
X189590000Y-130376500D03*
X191140000Y-130376500D03*
D17*
X105483000Y-119960000D03*
X167278000Y-81376000D03*
D18*
X185812000Y-132857000D03*
X185812000Y-133877000D03*
D19*
X192677000Y-94227000D03*
X193697000Y-94227000D03*
D26*
X119146500Y-93564500D03*
X119146500Y-88564500D03*
X118646500Y-93564500D03*
X118646500Y-88564500D03*
X118146500Y-93564500D03*
X118146500Y-88564500D03*
X117646500Y-93564500D03*
X117646500Y-88564500D03*
X117146500Y-93564500D03*
X117146500Y-88564500D03*
X116646500Y-93564500D03*
X116646500Y-88564500D03*
X116146500Y-93564500D03*
X116146500Y-88564500D03*
X115646500Y-93564500D03*
X115646500Y-88564500D03*
X115146500Y-93564500D03*
X115146500Y-88564500D03*
X114646500Y-93564500D03*
X114646500Y-88564500D03*
D27*
X119896500Y-93564500D03*
X119896500Y-88564500D03*
X113896500Y-88564500D03*
X113896500Y-93564500D03*
D18*
X185812000Y-52857000D03*
X185812000Y-53877000D03*
D22*
X189590000Y-95420000D03*
X191140000Y-95420000D03*
D17*
X105983000Y-86725000D03*
D21*
X186453000Y-45144000D03*
X185433000Y-45144000D03*
D28*
X118675000Y-121400000D03*
D29*
X118375000Y-118335000D03*
D28*
X118075000Y-121400000D03*
D29*
X117775000Y-118335000D03*
D28*
X117475000Y-121400000D03*
D29*
X117175000Y-118335000D03*
D28*
X116875000Y-121400000D03*
D29*
X116575000Y-118335000D03*
D28*
X116275000Y-121400000D03*
D29*
X115975000Y-118335000D03*
D28*
X115675000Y-121400000D03*
D29*
X115375000Y-118335000D03*
D28*
X115075000Y-121400000D03*
D29*
X114775000Y-118335000D03*
D28*
X114475000Y-121400000D03*
D29*
X114175000Y-118335000D03*
D28*
X113875000Y-121400000D03*
D29*
X113575000Y-118335000D03*
D28*
X113275000Y-121400000D03*
D29*
X112975000Y-118335000D03*
D28*
X112675000Y-121400000D03*
D29*
X112375000Y-118335000D03*
D28*
X112075000Y-121400000D03*
D30*
X119650000Y-121135000D03*
X111100000Y-121135000D03*
D22*
X129590000Y-130376500D03*
X131140000Y-130376500D03*
D23*
X196082000Y-130050000D03*
X196082000Y-130550000D03*
X196082000Y-131050000D03*
X196082000Y-131550000D03*
X196082000Y-132050000D03*
D24*
X194432000Y-131050000D03*
D17*
X168831000Y-123274000D03*
D19*
X132677000Y-94227000D03*
X133697000Y-94227000D03*
D22*
X189590000Y-135420000D03*
X191140000Y-135420000D03*
D18*
X127467000Y-84175000D03*
X127467000Y-85195000D03*
D19*
X132677000Y-134227000D03*
X133697000Y-134227000D03*
D25*
X198237000Y-50448000D03*
X198237000Y-51998000D03*
D17*
X168831000Y-43274000D03*
D22*
X189590000Y-128813000D03*
X191140000Y-128813000D03*
D18*
X185812000Y-92857000D03*
X185812000Y-93877000D03*
D22*
X129590000Y-55420000D03*
X131140000Y-55420000D03*
D23*
X136082000Y-50050000D03*
X136082000Y-50550000D03*
X136082000Y-51050000D03*
X136082000Y-51550000D03*
X136082000Y-52050000D03*
D24*
X134432000Y-51050000D03*
D26*
X119146500Y-133564500D03*
X119146500Y-128564500D03*
X118646500Y-133564500D03*
X118646500Y-128564500D03*
X118146500Y-133564500D03*
X118146500Y-128564500D03*
X117646500Y-133564500D03*
X117646500Y-128564500D03*
X117146500Y-133564500D03*
X117146500Y-128564500D03*
X116646500Y-133564500D03*
X116646500Y-128564500D03*
X116146500Y-133564500D03*
X116146500Y-128564500D03*
X115646500Y-133564500D03*
X115646500Y-128564500D03*
X115146500Y-133564500D03*
X115146500Y-128564500D03*
X114646500Y-133564500D03*
X114646500Y-128564500D03*
D27*
X119896500Y-133564500D03*
X119896500Y-128564500D03*
X113896500Y-128564500D03*
X113896500Y-133564500D03*
D19*
X195872000Y-134230000D03*
X196892000Y-134230000D03*
M02*
