M48
; DRILL file {KiCad 7.0.7} date Fri Apr  5 11:51:32 2024
; FORMAT={-:-/ absolute / metric / decimal}
; #@! TF.CreationDate,2024-04-05T11:51:32+02:00
; #@! TF.GenerationSoftware,Kicad,Pcbnew,7.0.7
; #@! TF.FileFunction,NonPlated,1,4,NPTH
FMAT,2
METRIC
; #@! TA.AperFunction,NonPlated,NPTH,ComponentDrill
T1C0.500
; #@! TA.AperFunction,NonPlated,NPTH,ComponentDrill
T2C0.650
; #@! TA.AperFunction,NonPlated,NPTH,ComponentDrill
T3C1.500
; #@! TA.AperFunction,NonPlated,NPTH,ComponentDrill
T4C2.500
%
G90
G05
T1
X81.346Y-35.0
X81.346Y-140.0
X82.192Y-35.0
X82.192Y-140.0
X83.038Y-35.0
X83.038Y-140.0
X83.885Y-35.0
X83.885Y-140.0
X84.731Y-35.0
X84.731Y-140.0
X85.577Y-35.0
X85.577Y-140.0
X86.423Y-35.0
X86.423Y-140.0
X87.269Y-35.0
X87.269Y-140.0
X88.115Y-35.0
X88.115Y-140.0
X88.962Y-35.0
X88.962Y-140.0
X89.808Y-35.0
X89.808Y-140.0
X90.654Y-35.0
X90.654Y-140.0
X96.0Y-20.346
X96.0Y-21.192
X96.0Y-22.038
X96.0Y-22.885
X96.0Y-23.731
X96.0Y-24.577
X96.0Y-25.423
X96.0Y-26.269
X96.0Y-27.115
X96.0Y-27.962
X96.0Y-28.808
X96.0Y-29.654
X96.0Y-65.357
X96.0Y-66.214
X96.0Y-67.071
X96.0Y-67.929
X96.0Y-68.786
X96.0Y-69.643
X96.0Y-105.357
X96.0Y-106.214
X96.0Y-107.071
X96.0Y-107.929
X96.0Y-108.786
X96.0Y-109.643
X96.0Y-145.346
X96.0Y-146.192
X96.0Y-147.038
X96.0Y-147.885
X96.0Y-148.731
X96.0Y-149.577
X96.0Y-150.423
X96.0Y-151.269
X96.0Y-152.115
X96.0Y-152.962
X96.0Y-153.808
X96.0Y-154.654
X115.183Y-35.1
X115.183Y-59.9
X115.183Y-75.1
X115.183Y-99.9
X115.183Y-115.1
X115.183Y-139.9
X116.041Y-35.1
X116.041Y-59.9
X116.041Y-75.1
X116.041Y-99.9
X116.041Y-115.1
X116.041Y-139.9
X116.898Y-35.1
X116.898Y-59.9
X116.898Y-75.1
X116.898Y-99.9
X116.898Y-115.1
X116.898Y-139.9
X117.755Y-35.1
X117.755Y-59.9
X117.755Y-75.1
X117.755Y-99.9
X117.755Y-115.1
X117.755Y-139.9
X118.612Y-35.1
X118.612Y-59.9
X118.612Y-75.1
X118.612Y-99.9
X118.612Y-115.1
X118.612Y-139.9
X119.469Y-35.1
X119.469Y-59.9
X119.469Y-75.1
X119.469Y-99.9
X119.469Y-115.1
X119.469Y-139.9
X120.326Y-35.1
X120.326Y-59.9
X120.326Y-75.1
X120.326Y-99.9
X120.326Y-115.1
X120.326Y-139.9
X121.183Y-35.1
X121.183Y-59.9
X121.183Y-75.1
X121.183Y-99.9
X121.183Y-115.1
X121.183Y-139.9
X140.9Y-44.328
X140.9Y-45.185
X140.9Y-46.042
X140.9Y-46.899
X140.9Y-47.756
X140.9Y-48.613
X140.9Y-49.47
X140.9Y-50.328
X140.9Y-84.328
X140.9Y-85.185
X140.9Y-86.042
X140.9Y-86.899
X140.9Y-87.756
X140.9Y-88.613
X140.9Y-89.47
X140.9Y-90.328
X140.9Y-124.328
X140.9Y-125.185
X140.9Y-126.042
X140.9Y-126.899
X140.9Y-127.756
X140.9Y-128.613
X140.9Y-129.47
X140.9Y-130.327
X146.0Y-65.0
X146.0Y-65.833
X146.0Y-66.667
X146.0Y-67.5
X146.0Y-68.333
X146.0Y-69.167
X146.0Y-70.0
X146.0Y-105.0
X146.0Y-105.0
X146.0Y-105.833
X146.0Y-106.667
X146.0Y-107.5
X146.0Y-108.333
X146.0Y-109.167
X146.0Y-110.0
X146.0Y-110.0
X146.357Y-35.0
X146.357Y-140.0
X146.833Y-65.0
X146.833Y-70.0
X146.833Y-105.0
X146.833Y-110.0
X147.214Y-35.0
X147.214Y-140.0
X147.667Y-65.0
X147.667Y-70.0
X147.667Y-105.0
X147.667Y-110.0
X148.071Y-35.0
X148.071Y-140.0
X148.5Y-65.0
X148.5Y-70.0
X148.5Y-105.0
X148.5Y-110.0
X148.929Y-35.0
X148.929Y-140.0
X149.333Y-65.0
X149.333Y-70.0
X149.333Y-105.0
X149.333Y-110.0
X149.786Y-35.0
X149.786Y-140.0
X150.167Y-65.0
X150.167Y-70.0
X150.167Y-105.0
X150.167Y-110.0
X150.643Y-35.0
X150.643Y-140.0
X151.0Y-65.0
X151.0Y-65.833
X151.0Y-66.667
X151.0Y-67.5
X151.0Y-68.333
X151.0Y-69.167
X151.0Y-70.0
X151.0Y-105.0
X151.0Y-105.0
X151.0Y-105.833
X151.0Y-106.667
X151.0Y-107.5
X151.0Y-108.333
X151.0Y-109.167
X151.0Y-110.0
X151.0Y-110.0
X175.183Y-35.1
X175.183Y-59.9
X175.183Y-75.1
X175.183Y-99.9
X175.183Y-115.1
X175.183Y-139.9
X176.041Y-35.1
X176.041Y-59.9
X176.041Y-75.1
X176.041Y-99.9
X176.041Y-115.1
X176.041Y-139.9
X176.898Y-35.1
X176.898Y-59.9
X176.898Y-75.1
X176.898Y-99.9
X176.898Y-115.1
X176.898Y-139.9
X177.755Y-35.1
X177.755Y-59.9
X177.755Y-75.1
X177.755Y-99.9
X177.755Y-115.1
X177.755Y-139.9
X178.612Y-35.1
X178.612Y-59.9
X178.612Y-75.1
X178.612Y-99.9
X178.612Y-115.1
X178.612Y-139.9
X179.469Y-35.1
X179.469Y-59.9
X179.469Y-75.1
X179.469Y-99.9
X179.469Y-115.1
X179.469Y-139.9
X180.326Y-35.1
X180.326Y-59.9
X180.326Y-75.1
X180.326Y-99.9
X180.326Y-115.1
X180.326Y-139.9
X181.183Y-35.1
X181.183Y-59.9
X181.183Y-75.1
X181.183Y-99.9
X181.183Y-115.1
X181.183Y-139.9
X200.9Y-44.328
X200.9Y-45.185
X200.9Y-46.042
X200.9Y-46.899
X200.9Y-47.756
X200.9Y-48.613
X200.9Y-49.47
X200.9Y-50.328
X200.9Y-84.328
X200.9Y-85.185
X200.9Y-86.042
X200.9Y-86.899
X200.9Y-87.756
X200.9Y-88.613
X200.9Y-89.47
X200.9Y-90.328
X200.9Y-124.328
X200.9Y-125.185
X200.9Y-126.042
X200.9Y-126.899
X200.9Y-127.756
X200.9Y-128.613
X200.9Y-129.47
X200.9Y-130.327
X201.0Y-20.346
X201.0Y-21.192
X201.0Y-22.038
X201.0Y-22.885
X201.0Y-23.731
X201.0Y-24.577
X201.0Y-25.423
X201.0Y-26.269
X201.0Y-27.115
X201.0Y-27.962
X201.0Y-28.808
X201.0Y-29.654
X201.0Y-65.357
X201.0Y-66.214
X201.0Y-67.071
X201.0Y-67.929
X201.0Y-68.786
X201.0Y-69.643
X201.0Y-105.357
X201.0Y-106.214
X201.0Y-107.071
X201.0Y-107.929
X201.0Y-108.786
X201.0Y-109.643
X201.0Y-145.346
X201.0Y-146.192
X201.0Y-147.038
X201.0Y-147.885
X201.0Y-148.731
X201.0Y-149.577
X201.0Y-150.423
X201.0Y-151.269
X201.0Y-152.115
X201.0Y-152.962
X201.0Y-153.808
X201.0Y-154.654
X206.346Y-35.0
X206.346Y-140.0
X207.192Y-35.0
X207.192Y-140.0
X208.038Y-35.0
X208.038Y-140.0
X208.885Y-35.0
X208.885Y-140.0
X209.731Y-35.0
X209.731Y-140.0
X210.577Y-35.0
X210.577Y-140.0
X211.423Y-35.0
X211.423Y-140.0
X212.269Y-35.0
X212.269Y-140.0
X213.115Y-35.0
X213.115Y-140.0
X213.962Y-35.0
X213.962Y-140.0
X214.808Y-35.0
X214.808Y-140.0
X215.654Y-35.0
X215.654Y-140.0
T2
X101.35Y-37.495
X101.35Y-44.945
X101.35Y-49.995
X101.35Y-57.445
X101.35Y-77.495
X101.35Y-84.945
X101.35Y-89.995
X101.35Y-97.445
X101.35Y-117.495
X101.35Y-124.945
X101.35Y-129.995
X101.35Y-137.445
X161.35Y-37.495
X161.35Y-44.945
X161.35Y-49.995
X161.35Y-57.445
X161.35Y-77.495
X161.35Y-84.945
X161.35Y-89.995
X161.35Y-97.445
X161.35Y-117.495
X161.35Y-124.945
X161.35Y-129.995
X161.35Y-137.445
T3
X83.5Y-22.5
X83.5Y-152.5
X213.5Y-22.5
T4
X123.8Y-37.82
X123.8Y-57.18
X123.8Y-77.82
X123.8Y-97.18
X123.8Y-117.82
X123.8Y-137.18
X183.8Y-37.82
X183.8Y-57.18
X183.8Y-77.82
X183.8Y-97.18
X183.8Y-117.82
X183.8Y-137.18
T0
M30
