G04 #@! TF.GenerationSoftware,KiCad,Pcbnew,7.0.7*
G04 #@! TF.CreationDate,2024-04-05T11:51:01+02:00*
G04 #@! TF.ProjectId,Versa_ECG_PPG_panel,56657273-615f-4454-9347-5f5050475f70,00*
G04 #@! TF.SameCoordinates,Original*
G04 #@! TF.FileFunction,Soldermask,Top*
G04 #@! TF.FilePolarity,Negative*
%FSLAX46Y46*%
G04 Gerber Fmt 4.6, Leading zero omitted, Abs format (unit mm)*
G04 Created by KiCad (PCBNEW 7.0.7) date 2024-04-05 11:51:01*
%MOMM*%
%LPD*%
G01*
G04 APERTURE LIST*
G04 Aperture macros list*
%AMRoundRect*
0 Rectangle with rounded corners*
0 $1 Rounding radius*
0 $2 $3 $4 $5 $6 $7 $8 $9 X,Y pos of 4 corners*
0 Add a 4 corners polygon primitive as box body*
4,1,4,$2,$3,$4,$5,$6,$7,$8,$9,$2,$3,0*
0 Add four circle primitives for the rounded corners*
1,1,$1+$1,$2,$3*
1,1,$1+$1,$4,$5*
1,1,$1+$1,$6,$7*
1,1,$1+$1,$8,$9*
0 Add four rect primitives between the rounded corners*
20,1,$1+$1,$2,$3,$4,$5,0*
20,1,$1+$1,$4,$5,$6,$7,0*
20,1,$1+$1,$6,$7,$8,$9,0*
20,1,$1+$1,$8,$9,$2,$3,0*%
G04 Aperture macros list end*
%ADD10R,0.200000X0.700000*%
%ADD11R,0.200000X0.600000*%
%ADD12R,0.600000X0.200000*%
%ADD13C,0.500000*%
%ADD14C,1.500000*%
%ADD15RoundRect,0.135000X0.135000X0.185000X-0.135000X0.185000X-0.135000X-0.185000X0.135000X-0.185000X0*%
%ADD16RoundRect,0.140000X-0.140000X-0.170000X0.140000X-0.170000X0.140000X0.170000X-0.140000X0.170000X0*%
%ADD17R,0.522000X0.725000*%
%ADD18C,1.625000*%
%ADD19R,0.300000X0.300000*%
%ADD20RoundRect,0.225000X-0.250000X0.225000X-0.250000X-0.225000X0.250000X-0.225000X0.250000X0.225000X0*%
%ADD21C,0.203200*%
%ADD22RoundRect,0.140000X-0.170000X0.140000X-0.170000X-0.140000X0.170000X-0.140000X0.170000X0.140000X0*%
%ADD23R,1.150000X1.000000*%
%ADD24RoundRect,0.135000X-0.185000X0.135000X-0.185000X-0.135000X0.185000X-0.135000X0.185000X0.135000X0*%
%ADD25RoundRect,0.140000X0.140000X0.170000X-0.140000X0.170000X-0.140000X-0.170000X0.140000X-0.170000X0*%
%ADD26RoundRect,0.140000X0.170000X-0.140000X0.170000X0.140000X-0.170000X0.140000X-0.170000X-0.140000X0*%
%ADD27RoundRect,0.250000X1.100000X-0.325000X1.100000X0.325000X-1.100000X0.325000X-1.100000X-0.325000X0*%
%ADD28RoundRect,0.135000X-0.135000X-0.185000X0.135000X-0.185000X0.135000X0.185000X-0.135000X0.185000X0*%
%ADD29RoundRect,0.225000X0.250000X-0.225000X0.250000X0.225000X-0.250000X0.225000X-0.250000X-0.225000X0*%
%ADD30RoundRect,0.225000X-0.225000X-0.250000X0.225000X-0.250000X0.225000X0.250000X-0.225000X0.250000X0*%
%ADD31R,0.600000X1.200000*%
%ADD32C,2.500000*%
%ADD33R,0.400000X1.200000*%
%ADD34C,0.216000*%
%ADD35C,1.000000*%
%ADD36C,0.650000*%
%ADD37RoundRect,0.102000X0.350000X-0.175000X0.350000X0.175000X-0.350000X0.175000X-0.350000X-0.175000X0*%
%ADD38C,0.854000*%
%ADD39O,2.204000X1.204000*%
%ADD40RoundRect,0.100000X0.100000X-0.130000X0.100000X0.130000X-0.100000X0.130000X-0.100000X-0.130000X0*%
%ADD41R,1.000000X1.000000*%
%ADD42RoundRect,0.100000X0.130000X0.100000X-0.130000X0.100000X-0.130000X-0.100000X0.130000X-0.100000X0*%
%ADD43R,0.300000X0.670000*%
%ADD44R,0.300000X0.500000*%
%ADD45R,0.350000X1.000000*%
G04 APERTURE END LIST*
D10*
X112584000Y-50204000D03*
D11*
X112184000Y-50154000D03*
D12*
X111584000Y-50354000D03*
X111584000Y-50754000D03*
X111584000Y-51154000D03*
D11*
X112184000Y-51354000D03*
X112584000Y-51354000D03*
D12*
X113184000Y-51154000D03*
X113184000Y-50754000D03*
X113184000Y-50354000D03*
D13*
X96000000Y-22038462D03*
D14*
X83500000Y-152500000D03*
D13*
X176040642Y-139900000D03*
X176040642Y-115100000D03*
D15*
X195533500Y-37303500D03*
X194513500Y-37303500D03*
X167609000Y-93276000D03*
X166589000Y-93276000D03*
D13*
X178612071Y-115100000D03*
X150642857Y-35000000D03*
D16*
X198417500Y-41481500D03*
X199377500Y-41481500D03*
D13*
X151000000Y-110000000D03*
D17*
X169073200Y-130261500D03*
X168251200Y-130261500D03*
D18*
X166999200Y-131099000D03*
D19*
X166256800Y-130074000D03*
X166256800Y-132124000D03*
D17*
X168251200Y-131936500D03*
X169073200Y-131936500D03*
D13*
X84730770Y-35000000D03*
X121183500Y-115100000D03*
X213115384Y-35000000D03*
X96000000Y-25423077D03*
D20*
X119642000Y-128600000D03*
X119642000Y-130150000D03*
D13*
X140900000Y-88613214D03*
X140900000Y-45184643D03*
X116897786Y-115100000D03*
X148928571Y-35000000D03*
D17*
X169073200Y-50261500D03*
X168251200Y-50261500D03*
D18*
X166999200Y-51099000D03*
D19*
X166256800Y-50074000D03*
X166256800Y-52124000D03*
D17*
X168251200Y-51936500D03*
X169073200Y-51936500D03*
D13*
X177754928Y-115100000D03*
X96000000Y-22884616D03*
D21*
X184912000Y-128745000D03*
X185262000Y-128745000D03*
X185612000Y-128745000D03*
X185962000Y-128745000D03*
X186312000Y-128745000D03*
X186662000Y-128745000D03*
X187012000Y-128745000D03*
X184912000Y-129095000D03*
X185262000Y-129095000D03*
X185612000Y-129095000D03*
X185962000Y-129095000D03*
X186312000Y-129095000D03*
X186662000Y-129095000D03*
X187012000Y-129095000D03*
X184912000Y-129445000D03*
X185262000Y-129445000D03*
X185612000Y-129445000D03*
X185962000Y-129445000D03*
X186312000Y-129445000D03*
X186662000Y-129445000D03*
X187012000Y-129445000D03*
X184912000Y-129795000D03*
X185262000Y-129795000D03*
X185612000Y-129795000D03*
X185962000Y-129795000D03*
X186312000Y-129795000D03*
X186662000Y-129795000D03*
X187012000Y-129795000D03*
X184912000Y-130145000D03*
X185262000Y-130145000D03*
X185612000Y-130145000D03*
X185962000Y-130145000D03*
X186312000Y-130145000D03*
X186662000Y-130145000D03*
X187012000Y-130145000D03*
X184912000Y-130495000D03*
X185262000Y-130495000D03*
X185612000Y-130495000D03*
X185962000Y-130495000D03*
X186312000Y-130495000D03*
X186662000Y-130495000D03*
X187012000Y-130495000D03*
X184912000Y-130845000D03*
X185262000Y-130845000D03*
X185612000Y-130845000D03*
X185962000Y-130845000D03*
X186312000Y-130845000D03*
X186662000Y-130845000D03*
X187012000Y-130845000D03*
D13*
X140900000Y-126898928D03*
X119469214Y-115100000D03*
D22*
X133520500Y-42458500D03*
X133520500Y-43418500D03*
D13*
X90653847Y-140000000D03*
D15*
X137493500Y-77299500D03*
X136473500Y-77299500D03*
D13*
X85576924Y-35000000D03*
D23*
X138033500Y-83709500D03*
X135683500Y-83709500D03*
D13*
X151000000Y-68333333D03*
D24*
X138460500Y-38114500D03*
X138460500Y-39134500D03*
D25*
X111638000Y-97605000D03*
X110678000Y-97605000D03*
D26*
X133472500Y-121465500D03*
X133472500Y-120505500D03*
D13*
X116040643Y-59900000D03*
D27*
X192297000Y-88354000D03*
X192297000Y-85404000D03*
D13*
X140900000Y-49470357D03*
X96000000Y-107928571D03*
X148500000Y-110000000D03*
X201000000Y-69642857D03*
D28*
X186085000Y-133157000D03*
X187105000Y-133157000D03*
D24*
X128912500Y-44859500D03*
X128912500Y-45879500D03*
D13*
X146000000Y-105833333D03*
D29*
X125851600Y-45327000D03*
X125851600Y-43777000D03*
D30*
X129975000Y-131728000D03*
X131525000Y-131728000D03*
D27*
X132297000Y-48354000D03*
X132297000Y-45404000D03*
D31*
X171054000Y-136167000D03*
X172004000Y-136167000D03*
X172954000Y-136167000D03*
X172954000Y-133667000D03*
X171054000Y-133667000D03*
D32*
X123800000Y-137180000D03*
D20*
X177989000Y-88600000D03*
X177989000Y-90150000D03*
D16*
X138417500Y-121481500D03*
X139377500Y-121481500D03*
D13*
X140900000Y-46898929D03*
D33*
X106869500Y-56640500D03*
X106219500Y-56640500D03*
X105569500Y-56640500D03*
X105569500Y-58540500D03*
X106219500Y-58540500D03*
X106869500Y-58540500D03*
D13*
X147666666Y-65000000D03*
X181183500Y-75100000D03*
X140900000Y-84327500D03*
D28*
X126085000Y-133157000D03*
X127105000Y-133157000D03*
D13*
X96000000Y-23730770D03*
X116897786Y-59900000D03*
D14*
X213500000Y-22500000D03*
D30*
X189975000Y-131728000D03*
X191525000Y-131728000D03*
D34*
X196606500Y-79339000D03*
X196606500Y-79739000D03*
X196606500Y-80139000D03*
X196606500Y-80539000D03*
X196206500Y-79339000D03*
X196206500Y-79739000D03*
X196206500Y-80139000D03*
X196206500Y-80539000D03*
X195806500Y-79339000D03*
X195806500Y-79739000D03*
X195806500Y-80139000D03*
X195806500Y-80539000D03*
X195406500Y-79339000D03*
X195406500Y-79739000D03*
X195406500Y-80139000D03*
X195406500Y-80539000D03*
D13*
X213961538Y-140000000D03*
D33*
X166869500Y-96640500D03*
X166219500Y-96640500D03*
X165569500Y-96640500D03*
X165569500Y-98540500D03*
X166219500Y-98540500D03*
X166869500Y-98540500D03*
D16*
X138426500Y-40422500D03*
X139386500Y-40422500D03*
D35*
X86000000Y-152500000D03*
D13*
X200900000Y-124327500D03*
X146833333Y-65000000D03*
X146000000Y-70000000D03*
X149333333Y-70000000D03*
X118612071Y-139900000D03*
X96000000Y-20346154D03*
X117754929Y-115100000D03*
D29*
X124284200Y-45327000D03*
X124284200Y-43777000D03*
D13*
X177754928Y-139900000D03*
X120326357Y-115100000D03*
X82192308Y-35000000D03*
X208884615Y-35000000D03*
X176040642Y-75100000D03*
D22*
X109669000Y-95088000D03*
X109669000Y-96048000D03*
D16*
X198426500Y-120422500D03*
X199386500Y-120422500D03*
D13*
X96000000Y-147884615D03*
D31*
X171054000Y-56167000D03*
X172004000Y-56167000D03*
X172954000Y-56167000D03*
X172954000Y-53667000D03*
X171054000Y-53667000D03*
D13*
X176040642Y-59900000D03*
X86423077Y-140000000D03*
X200900000Y-126898928D03*
D29*
X125851600Y-125327000D03*
X125851600Y-123777000D03*
D27*
X192297000Y-128354000D03*
X192297000Y-125404000D03*
D29*
X124284200Y-125327000D03*
X124284200Y-123777000D03*
D13*
X147666666Y-110000000D03*
D15*
X107609000Y-93276000D03*
X106589000Y-93276000D03*
D13*
X96000000Y-152961538D03*
X200900000Y-48613214D03*
X119469214Y-35100000D03*
D15*
X167609000Y-133276000D03*
X166589000Y-133276000D03*
D33*
X106869500Y-136640500D03*
X106219500Y-136640500D03*
X105569500Y-136640500D03*
X105569500Y-138540500D03*
X106219500Y-138540500D03*
X106869500Y-138540500D03*
D36*
X101350000Y-37495000D03*
X101350000Y-44945000D03*
D37*
X103170000Y-38470000D03*
X103170000Y-38970000D03*
X103170000Y-39470000D03*
X103170000Y-39970000D03*
X103170000Y-40470000D03*
X103170000Y-40970000D03*
X103170000Y-41470000D03*
X103170000Y-41970000D03*
X103170000Y-42470000D03*
X103170000Y-42970000D03*
X103170000Y-43470000D03*
X103170000Y-43970000D03*
D38*
X102050000Y-44270000D03*
X101350000Y-43620000D03*
X101350000Y-42820000D03*
X102050000Y-42420000D03*
X101350000Y-42020000D03*
X102050000Y-41620000D03*
X102050000Y-40820000D03*
X101350000Y-40420000D03*
X102050000Y-40020000D03*
X101350000Y-39620000D03*
X101350000Y-38820000D03*
X102050000Y-38170000D03*
D39*
X102850000Y-36720000D03*
X102850000Y-45720000D03*
X97250000Y-36720000D03*
X97250000Y-45720000D03*
D24*
X193502500Y-78502500D03*
X193502500Y-79522500D03*
D13*
X140900000Y-44327500D03*
X119469214Y-99900000D03*
X201000000Y-25423077D03*
X180326357Y-139900000D03*
X121183500Y-59900000D03*
D22*
X193520500Y-122458500D03*
X193520500Y-123418500D03*
D13*
X215653846Y-35000000D03*
X90653847Y-35000000D03*
D26*
X193472500Y-41465500D03*
X193472500Y-40505500D03*
D13*
X175183500Y-139900000D03*
X88115385Y-140000000D03*
X118612071Y-115100000D03*
X115183500Y-115100000D03*
D15*
X167110000Y-48885000D03*
X166090000Y-48885000D03*
D17*
X109073200Y-50261500D03*
X108251200Y-50261500D03*
D18*
X106999200Y-51099000D03*
D19*
X106256800Y-50074000D03*
X106256800Y-52124000D03*
D17*
X108251200Y-51936500D03*
X109073200Y-51936500D03*
D13*
X96000000Y-148730769D03*
D24*
X130047500Y-84859500D03*
X130047500Y-85879500D03*
D29*
X182716800Y-85327000D03*
X182716800Y-83777000D03*
D13*
X84730770Y-140000000D03*
D21*
X124912000Y-128745000D03*
X125262000Y-128745000D03*
X125612000Y-128745000D03*
X125962000Y-128745000D03*
X126312000Y-128745000D03*
X126662000Y-128745000D03*
X127012000Y-128745000D03*
X124912000Y-129095000D03*
X125262000Y-129095000D03*
X125612000Y-129095000D03*
X125962000Y-129095000D03*
X126312000Y-129095000D03*
X126662000Y-129095000D03*
X127012000Y-129095000D03*
X124912000Y-129445000D03*
X125262000Y-129445000D03*
X125612000Y-129445000D03*
X125962000Y-129445000D03*
X126312000Y-129445000D03*
X126662000Y-129445000D03*
X127012000Y-129445000D03*
X124912000Y-129795000D03*
X125262000Y-129795000D03*
X125612000Y-129795000D03*
X125962000Y-129795000D03*
X126312000Y-129795000D03*
X126662000Y-129795000D03*
X127012000Y-129795000D03*
X124912000Y-130145000D03*
X125262000Y-130145000D03*
X125612000Y-130145000D03*
X125962000Y-130145000D03*
X126312000Y-130145000D03*
X126662000Y-130145000D03*
X127012000Y-130145000D03*
X124912000Y-130495000D03*
X125262000Y-130495000D03*
X125612000Y-130495000D03*
X125962000Y-130495000D03*
X126312000Y-130495000D03*
X126662000Y-130495000D03*
X127012000Y-130495000D03*
X124912000Y-130845000D03*
X125262000Y-130845000D03*
X125612000Y-130845000D03*
X125962000Y-130845000D03*
X126312000Y-130845000D03*
X126662000Y-130845000D03*
X127012000Y-130845000D03*
D13*
X96000000Y-145346153D03*
D40*
X174236000Y-93825000D03*
X174236000Y-93185000D03*
D13*
X140900000Y-125184642D03*
X200900000Y-127756071D03*
X177754928Y-75100000D03*
X207192307Y-140000000D03*
X121183500Y-139900000D03*
X201000000Y-20346154D03*
X140900000Y-129470357D03*
X201000000Y-21192308D03*
D24*
X133502500Y-78502500D03*
X133502500Y-79522500D03*
D26*
X133472500Y-81465500D03*
X133472500Y-80505500D03*
D13*
X140900000Y-47756071D03*
X151000000Y-107500000D03*
D29*
X125851600Y-85327000D03*
X125851600Y-83777000D03*
D25*
X171638000Y-57605000D03*
X170678000Y-57605000D03*
X111638000Y-137605000D03*
X110678000Y-137605000D03*
D28*
X186085000Y-53157000D03*
X187105000Y-53157000D03*
D25*
X169685000Y-93266000D03*
X168725000Y-93266000D03*
D13*
X179469214Y-35100000D03*
D16*
X138426500Y-120422500D03*
X139386500Y-120422500D03*
D15*
X107110000Y-128885000D03*
X106090000Y-128885000D03*
D13*
X181183500Y-115100000D03*
X151000000Y-65833333D03*
X213115384Y-140000000D03*
X151000000Y-105000000D03*
D36*
X101350000Y-77495000D03*
X101350000Y-84945000D03*
D37*
X103170000Y-78470000D03*
X103170000Y-78970000D03*
X103170000Y-79470000D03*
X103170000Y-79970000D03*
X103170000Y-80470000D03*
X103170000Y-80970000D03*
X103170000Y-81470000D03*
X103170000Y-81970000D03*
X103170000Y-82470000D03*
X103170000Y-82970000D03*
X103170000Y-83470000D03*
X103170000Y-83970000D03*
D38*
X102050000Y-84270000D03*
X101350000Y-83620000D03*
X101350000Y-82820000D03*
X102050000Y-82420000D03*
X101350000Y-82020000D03*
X102050000Y-81620000D03*
X102050000Y-80820000D03*
X101350000Y-80420000D03*
X102050000Y-80020000D03*
X101350000Y-79620000D03*
X101350000Y-78820000D03*
X102050000Y-78170000D03*
D39*
X102850000Y-76720000D03*
X102850000Y-85720000D03*
X97250000Y-76720000D03*
X97250000Y-85720000D03*
D41*
X190274000Y-122003000D03*
D35*
X190274000Y-120733000D03*
X190274000Y-119463000D03*
D13*
X200900000Y-88613214D03*
X175183500Y-59900000D03*
X116897786Y-75100000D03*
X147214285Y-35000000D03*
X89807693Y-35000000D03*
X96000000Y-66214285D03*
X201000000Y-153807692D03*
D17*
X109073200Y-90261500D03*
X108251200Y-90261500D03*
D18*
X106999200Y-91099000D03*
D19*
X106256800Y-90074000D03*
X106256800Y-92124000D03*
D17*
X108251200Y-91936500D03*
X109073200Y-91936500D03*
D13*
X146000000Y-66666666D03*
X201000000Y-148730769D03*
X87269231Y-140000000D03*
X200900000Y-47756071D03*
D16*
X198417500Y-81481500D03*
X199377500Y-81481500D03*
D29*
X124284200Y-85327000D03*
X124284200Y-83777000D03*
D13*
X175183500Y-35100000D03*
D26*
X133472500Y-41465500D03*
X133472500Y-40505500D03*
X193472500Y-81465500D03*
X193472500Y-80505500D03*
D25*
X111638000Y-57605000D03*
X110678000Y-57605000D03*
D13*
X96000000Y-27961539D03*
X176897785Y-115100000D03*
D40*
X174236000Y-53825000D03*
X174236000Y-53185000D03*
D42*
X169180000Y-129005000D03*
X168540000Y-129005000D03*
D13*
X212269230Y-140000000D03*
X120326357Y-75100000D03*
X140900000Y-87756071D03*
X151000000Y-109166666D03*
X96000000Y-65357142D03*
X151000000Y-105000000D03*
X147666666Y-105000000D03*
X96000000Y-105357142D03*
D20*
X177989000Y-48600000D03*
X177989000Y-50150000D03*
D22*
X133520500Y-82458500D03*
X133520500Y-83418500D03*
D13*
X181183500Y-99900000D03*
X117754929Y-59900000D03*
X96000000Y-107071428D03*
D24*
X130047500Y-44859500D03*
X130047500Y-45879500D03*
D21*
X124912000Y-88745000D03*
X125262000Y-88745000D03*
X125612000Y-88745000D03*
X125962000Y-88745000D03*
X126312000Y-88745000D03*
X126662000Y-88745000D03*
X127012000Y-88745000D03*
X124912000Y-89095000D03*
X125262000Y-89095000D03*
X125612000Y-89095000D03*
X125962000Y-89095000D03*
X126312000Y-89095000D03*
X126662000Y-89095000D03*
X127012000Y-89095000D03*
X124912000Y-89445000D03*
X125262000Y-89445000D03*
X125612000Y-89445000D03*
X125962000Y-89445000D03*
X126312000Y-89445000D03*
X126662000Y-89445000D03*
X127012000Y-89445000D03*
X124912000Y-89795000D03*
X125262000Y-89795000D03*
X125612000Y-89795000D03*
X125962000Y-89795000D03*
X126312000Y-89795000D03*
X126662000Y-89795000D03*
X127012000Y-89795000D03*
X124912000Y-90145000D03*
X125262000Y-90145000D03*
X125612000Y-90145000D03*
X125962000Y-90145000D03*
X126312000Y-90145000D03*
X126662000Y-90145000D03*
X127012000Y-90145000D03*
X124912000Y-90495000D03*
X125262000Y-90495000D03*
X125612000Y-90495000D03*
X125962000Y-90495000D03*
X126312000Y-90495000D03*
X126662000Y-90495000D03*
X127012000Y-90495000D03*
X124912000Y-90845000D03*
X125262000Y-90845000D03*
X125612000Y-90845000D03*
X125962000Y-90845000D03*
X126312000Y-90845000D03*
X126662000Y-90845000D03*
X127012000Y-90845000D03*
D13*
X96000000Y-26269231D03*
D31*
X111054000Y-136167000D03*
X112004000Y-136167000D03*
X112954000Y-136167000D03*
X112954000Y-133667000D03*
X111054000Y-133667000D03*
D13*
X200900000Y-86041785D03*
X200900000Y-89470357D03*
D27*
X192297000Y-48354000D03*
X192297000Y-45404000D03*
D13*
X181183500Y-139900000D03*
D24*
X188912500Y-44859500D03*
X188912500Y-45879500D03*
D29*
X127419000Y-45327000D03*
X127419000Y-43777000D03*
D13*
X176897785Y-75100000D03*
X200900000Y-90327500D03*
D30*
X189975000Y-50120000D03*
X191525000Y-50120000D03*
D13*
X177754928Y-59900000D03*
X180326357Y-115100000D03*
D25*
X109685000Y-93266000D03*
X108725000Y-93266000D03*
D13*
X206346153Y-35000000D03*
D43*
X112075000Y-121400000D03*
D44*
X112375000Y-118335000D03*
D43*
X112675000Y-121400000D03*
D44*
X112975000Y-118335000D03*
D43*
X113275000Y-121400000D03*
D44*
X113575000Y-118335000D03*
D43*
X113875000Y-121400000D03*
D44*
X114175000Y-118335000D03*
D43*
X114475000Y-121400000D03*
D44*
X114775000Y-118335000D03*
D43*
X115075000Y-121400000D03*
D44*
X115375000Y-118335000D03*
D43*
X115675000Y-121400000D03*
D44*
X115975000Y-118335000D03*
D43*
X116275000Y-121400000D03*
D44*
X116575000Y-118335000D03*
D43*
X116875000Y-121400000D03*
D44*
X117175000Y-118335000D03*
D43*
X117475000Y-121400000D03*
D44*
X117775000Y-118335000D03*
D43*
X118075000Y-121400000D03*
D44*
X118375000Y-118335000D03*
D43*
X118675000Y-121400000D03*
D45*
X111100000Y-121135000D03*
X119650000Y-121135000D03*
D41*
X130274000Y-42003000D03*
D35*
X130274000Y-40733000D03*
X130274000Y-39463000D03*
D13*
X201000000Y-151269230D03*
D28*
X126085000Y-53157000D03*
X127105000Y-53157000D03*
D27*
X132297000Y-128354000D03*
X132297000Y-125404000D03*
D32*
X123800000Y-117820000D03*
D20*
X119642000Y-88600000D03*
X119642000Y-90150000D03*
D13*
X201000000Y-147038461D03*
D34*
X136606500Y-119339000D03*
X136606500Y-119739000D03*
X136606500Y-120139000D03*
X136606500Y-120539000D03*
X136206500Y-119339000D03*
X136206500Y-119739000D03*
X136206500Y-120139000D03*
X136206500Y-120539000D03*
X135806500Y-119339000D03*
X135806500Y-119739000D03*
X135806500Y-120139000D03*
X135806500Y-120539000D03*
X135406500Y-119339000D03*
X135406500Y-119739000D03*
X135406500Y-120139000D03*
X135406500Y-120539000D03*
D13*
X121183500Y-35100000D03*
D24*
X190047500Y-44859500D03*
X190047500Y-45879500D03*
D30*
X129975000Y-130120000D03*
X131525000Y-130120000D03*
D13*
X146000000Y-69166666D03*
X211423076Y-35000000D03*
D24*
X122260500Y-49105500D03*
X122260500Y-50125500D03*
D13*
X200900000Y-45184643D03*
X150642857Y-140000000D03*
X146000000Y-67500000D03*
X140900000Y-86041785D03*
X115183500Y-59900000D03*
X96000000Y-29653847D03*
D36*
X101350000Y-117495000D03*
X101350000Y-124945000D03*
D37*
X103170000Y-118470000D03*
X103170000Y-118970000D03*
X103170000Y-119470000D03*
X103170000Y-119970000D03*
X103170000Y-120470000D03*
X103170000Y-120970000D03*
X103170000Y-121470000D03*
X103170000Y-121970000D03*
X103170000Y-122470000D03*
X103170000Y-122970000D03*
X103170000Y-123470000D03*
X103170000Y-123970000D03*
D38*
X102050000Y-124270000D03*
X101350000Y-123620000D03*
X101350000Y-122820000D03*
X102050000Y-122420000D03*
X101350000Y-122020000D03*
X102050000Y-121620000D03*
X102050000Y-120820000D03*
X101350000Y-120420000D03*
X102050000Y-120020000D03*
X101350000Y-119620000D03*
X101350000Y-118820000D03*
X102050000Y-118170000D03*
D39*
X102850000Y-116720000D03*
X102850000Y-125720000D03*
X97250000Y-116720000D03*
X97250000Y-125720000D03*
D23*
X138033500Y-123709500D03*
X135683500Y-123709500D03*
D13*
X96000000Y-151269230D03*
D22*
X193520500Y-42458500D03*
X193520500Y-43418500D03*
D32*
X183800000Y-137180000D03*
D13*
X96000000Y-106214285D03*
X210576923Y-35000000D03*
X146000000Y-105000000D03*
X120326357Y-59900000D03*
X146833333Y-105000000D03*
X140900000Y-46041786D03*
X117754929Y-99900000D03*
X176897785Y-139900000D03*
X151000000Y-106666666D03*
X151000000Y-105833333D03*
D26*
X193472500Y-121465500D03*
X193472500Y-120505500D03*
D13*
X146000000Y-65000000D03*
D34*
X136606500Y-39339000D03*
X136606500Y-39739000D03*
X136606500Y-40139000D03*
X136606500Y-40539000D03*
X136206500Y-39339000D03*
X136206500Y-39739000D03*
X136206500Y-40139000D03*
X136206500Y-40539000D03*
X135806500Y-39339000D03*
X135806500Y-39739000D03*
X135806500Y-40139000D03*
X135806500Y-40539000D03*
X135406500Y-39339000D03*
X135406500Y-39739000D03*
X135406500Y-40139000D03*
X135406500Y-40539000D03*
D13*
X140900000Y-126041785D03*
X151000000Y-70000000D03*
D25*
X109685000Y-53266000D03*
X108725000Y-53266000D03*
D16*
X138417500Y-81481500D03*
X139377500Y-81481500D03*
D13*
X200900000Y-46898929D03*
D24*
X133502500Y-118502500D03*
X133502500Y-119522500D03*
D25*
X171638000Y-97605000D03*
X170678000Y-97605000D03*
D13*
X209730769Y-35000000D03*
D15*
X197493500Y-37299500D03*
X196473500Y-37299500D03*
D13*
X117754929Y-75100000D03*
D24*
X198460500Y-78114500D03*
X198460500Y-79134500D03*
D29*
X127419000Y-85327000D03*
X127419000Y-83777000D03*
D13*
X140900000Y-50327500D03*
X96000000Y-152115384D03*
X181183500Y-35100000D03*
X206346153Y-140000000D03*
X116040643Y-35100000D03*
D43*
X112075000Y-41400000D03*
D44*
X112375000Y-38335000D03*
D43*
X112675000Y-41400000D03*
D44*
X112975000Y-38335000D03*
D43*
X113275000Y-41400000D03*
D44*
X113575000Y-38335000D03*
D43*
X113875000Y-41400000D03*
D44*
X114175000Y-38335000D03*
D43*
X114475000Y-41400000D03*
D44*
X114775000Y-38335000D03*
D43*
X115075000Y-41400000D03*
D44*
X115375000Y-38335000D03*
D43*
X115675000Y-41400000D03*
D44*
X115975000Y-38335000D03*
D43*
X116275000Y-41400000D03*
D44*
X116575000Y-38335000D03*
D43*
X116875000Y-41400000D03*
D44*
X117175000Y-38335000D03*
D43*
X117475000Y-41400000D03*
D44*
X117775000Y-38335000D03*
D43*
X118075000Y-41400000D03*
D44*
X118375000Y-38335000D03*
D43*
X118675000Y-41400000D03*
D45*
X111100000Y-41135000D03*
X119650000Y-41135000D03*
D13*
X116897786Y-99900000D03*
X201000000Y-147884615D03*
X200900000Y-130327500D03*
X146357142Y-35000000D03*
D33*
X106869500Y-96640500D03*
X106219500Y-96640500D03*
X105569500Y-96640500D03*
X105569500Y-98540500D03*
X106219500Y-98540500D03*
X106869500Y-98540500D03*
D13*
X201000000Y-152961538D03*
D32*
X183800000Y-117820000D03*
D21*
X184912000Y-88745000D03*
X185262000Y-88745000D03*
X185612000Y-88745000D03*
X185962000Y-88745000D03*
X186312000Y-88745000D03*
X186662000Y-88745000D03*
X187012000Y-88745000D03*
X184912000Y-89095000D03*
X185262000Y-89095000D03*
X185612000Y-89095000D03*
X185962000Y-89095000D03*
X186312000Y-89095000D03*
X186662000Y-89095000D03*
X187012000Y-89095000D03*
X184912000Y-89445000D03*
X185262000Y-89445000D03*
X185612000Y-89445000D03*
X185962000Y-89445000D03*
X186312000Y-89445000D03*
X186662000Y-89445000D03*
X187012000Y-89445000D03*
X184912000Y-89795000D03*
X185262000Y-89795000D03*
X185612000Y-89795000D03*
X185962000Y-89795000D03*
X186312000Y-89795000D03*
X186662000Y-89795000D03*
X187012000Y-89795000D03*
X184912000Y-90145000D03*
X185262000Y-90145000D03*
X185612000Y-90145000D03*
X185962000Y-90145000D03*
X186312000Y-90145000D03*
X186662000Y-90145000D03*
X187012000Y-90145000D03*
X184912000Y-90495000D03*
X185262000Y-90495000D03*
X185612000Y-90495000D03*
X185962000Y-90495000D03*
X186312000Y-90495000D03*
X186662000Y-90495000D03*
X187012000Y-90495000D03*
X184912000Y-90845000D03*
X185262000Y-90845000D03*
X185612000Y-90845000D03*
X185962000Y-90845000D03*
X186312000Y-90845000D03*
X186662000Y-90845000D03*
X187012000Y-90845000D03*
D13*
X200900000Y-85184642D03*
X148071428Y-35000000D03*
X140900000Y-124327500D03*
D29*
X187419000Y-45327000D03*
X187419000Y-43777000D03*
D32*
X183800000Y-57180000D03*
D13*
X201000000Y-108785714D03*
X180326357Y-59900000D03*
X117754929Y-35100000D03*
D24*
X188912500Y-84859500D03*
X188912500Y-85879500D03*
D14*
X83500000Y-22500000D03*
D13*
X151000000Y-69166666D03*
D29*
X122716800Y-125327000D03*
X122716800Y-123777000D03*
D13*
X151000000Y-65000000D03*
X177754928Y-99900000D03*
X96000000Y-146192307D03*
D24*
X182260500Y-129105500D03*
X182260500Y-130125500D03*
D13*
X83038462Y-35000000D03*
D24*
X198460500Y-118114500D03*
X198460500Y-119134500D03*
D30*
X189975000Y-90120000D03*
X191525000Y-90120000D03*
D13*
X175183500Y-115100000D03*
X146000000Y-110000000D03*
X85576924Y-140000000D03*
X140900000Y-127756071D03*
X96000000Y-69642857D03*
X96000000Y-24576924D03*
X121183500Y-99900000D03*
X201000000Y-29653847D03*
D16*
X138417500Y-41481500D03*
X139377500Y-41481500D03*
D13*
X179469214Y-115100000D03*
X146000000Y-109166666D03*
X201000000Y-154653846D03*
D10*
X172584000Y-130204000D03*
D11*
X172184000Y-130154000D03*
D12*
X171584000Y-130354000D03*
X171584000Y-130754000D03*
X171584000Y-131154000D03*
D11*
X172184000Y-131354000D03*
X172584000Y-131354000D03*
D12*
X173184000Y-131154000D03*
X173184000Y-130754000D03*
X173184000Y-130354000D03*
D13*
X116040643Y-139900000D03*
D31*
X171054000Y-96167000D03*
X172004000Y-96167000D03*
X172954000Y-96167000D03*
X172954000Y-93667000D03*
X171054000Y-93667000D03*
D33*
X166869500Y-136640500D03*
X166219500Y-136640500D03*
X165569500Y-136640500D03*
X165569500Y-138540500D03*
X166219500Y-138540500D03*
X166869500Y-138540500D03*
D13*
X211423076Y-140000000D03*
D36*
X161350000Y-117495000D03*
X161350000Y-124945000D03*
D37*
X163170000Y-118470000D03*
X163170000Y-118970000D03*
X163170000Y-119470000D03*
X163170000Y-119970000D03*
X163170000Y-120470000D03*
X163170000Y-120970000D03*
X163170000Y-121470000D03*
X163170000Y-121970000D03*
X163170000Y-122470000D03*
X163170000Y-122970000D03*
X163170000Y-123470000D03*
X163170000Y-123970000D03*
D38*
X162050000Y-124270000D03*
X161350000Y-123620000D03*
X161350000Y-122820000D03*
X162050000Y-122420000D03*
X161350000Y-122020000D03*
X162050000Y-121620000D03*
X162050000Y-120820000D03*
X161350000Y-120420000D03*
X162050000Y-120020000D03*
X161350000Y-119620000D03*
X161350000Y-118820000D03*
X162050000Y-118170000D03*
D39*
X162850000Y-116720000D03*
X162850000Y-125720000D03*
X157250000Y-116720000D03*
X157250000Y-125720000D03*
D13*
X149333333Y-110000000D03*
X96000000Y-153807692D03*
D43*
X172075000Y-41400000D03*
D44*
X172375000Y-38335000D03*
D43*
X172675000Y-41400000D03*
D44*
X172975000Y-38335000D03*
D43*
X173275000Y-41400000D03*
D44*
X173575000Y-38335000D03*
D43*
X173875000Y-41400000D03*
D44*
X174175000Y-38335000D03*
D43*
X174475000Y-41400000D03*
D44*
X174775000Y-38335000D03*
D43*
X175075000Y-41400000D03*
D44*
X175375000Y-38335000D03*
D43*
X175675000Y-41400000D03*
D44*
X175975000Y-38335000D03*
D43*
X176275000Y-41400000D03*
D44*
X176575000Y-38335000D03*
D43*
X176875000Y-41400000D03*
D44*
X177175000Y-38335000D03*
D43*
X177475000Y-41400000D03*
D44*
X177775000Y-38335000D03*
D43*
X178075000Y-41400000D03*
D44*
X178375000Y-38335000D03*
D43*
X178675000Y-41400000D03*
D45*
X171100000Y-41135000D03*
X179650000Y-41135000D03*
D24*
X133502500Y-38502500D03*
X133502500Y-39522500D03*
D13*
X120326357Y-35100000D03*
X121183500Y-75100000D03*
X200900000Y-84327500D03*
D40*
X114236000Y-133825000D03*
X114236000Y-133185000D03*
D13*
X148500000Y-65000000D03*
D28*
X126085000Y-93157000D03*
X127105000Y-93157000D03*
D13*
X116897786Y-139900000D03*
X149785714Y-140000000D03*
D24*
X128912500Y-124859500D03*
X128912500Y-125879500D03*
D30*
X129975000Y-90120000D03*
X131525000Y-90120000D03*
D21*
X124912000Y-48745000D03*
X125262000Y-48745000D03*
X125612000Y-48745000D03*
X125962000Y-48745000D03*
X126312000Y-48745000D03*
X126662000Y-48745000D03*
X127012000Y-48745000D03*
X124912000Y-49095000D03*
X125262000Y-49095000D03*
X125612000Y-49095000D03*
X125962000Y-49095000D03*
X126312000Y-49095000D03*
X126662000Y-49095000D03*
X127012000Y-49095000D03*
X124912000Y-49445000D03*
X125262000Y-49445000D03*
X125612000Y-49445000D03*
X125962000Y-49445000D03*
X126312000Y-49445000D03*
X126662000Y-49445000D03*
X127012000Y-49445000D03*
X124912000Y-49795000D03*
X125262000Y-49795000D03*
X125612000Y-49795000D03*
X125962000Y-49795000D03*
X126312000Y-49795000D03*
X126662000Y-49795000D03*
X127012000Y-49795000D03*
X124912000Y-50145000D03*
X125262000Y-50145000D03*
X125612000Y-50145000D03*
X125962000Y-50145000D03*
X126312000Y-50145000D03*
X126662000Y-50145000D03*
X127012000Y-50145000D03*
X124912000Y-50495000D03*
X125262000Y-50495000D03*
X125612000Y-50495000D03*
X125962000Y-50495000D03*
X126312000Y-50495000D03*
X126662000Y-50495000D03*
X127012000Y-50495000D03*
X124912000Y-50845000D03*
X125262000Y-50845000D03*
X125612000Y-50845000D03*
X125962000Y-50845000D03*
X126312000Y-50845000D03*
X126662000Y-50845000D03*
X127012000Y-50845000D03*
D13*
X200900000Y-86898928D03*
D24*
X193502500Y-38502500D03*
X193502500Y-39522500D03*
D13*
X146833333Y-110000000D03*
X96000000Y-28807693D03*
X178612071Y-139900000D03*
X115183500Y-139900000D03*
D41*
X190274000Y-82003000D03*
D35*
X190274000Y-80733000D03*
X190274000Y-79463000D03*
D24*
X182260500Y-49105500D03*
X182260500Y-50125500D03*
D13*
X201000000Y-67928571D03*
X208038461Y-35000000D03*
X88115385Y-35000000D03*
X201000000Y-24576924D03*
X201000000Y-105357142D03*
X96000000Y-68785714D03*
X118612071Y-75100000D03*
X180326357Y-99900000D03*
D29*
X127419000Y-125327000D03*
X127419000Y-123777000D03*
D22*
X109669000Y-55088000D03*
X109669000Y-56048000D03*
D13*
X149785714Y-35000000D03*
D15*
X167110000Y-88885000D03*
X166090000Y-88885000D03*
D13*
X178612071Y-75100000D03*
D10*
X172584000Y-90204000D03*
D11*
X172184000Y-90154000D03*
D12*
X171584000Y-90354000D03*
X171584000Y-90754000D03*
X171584000Y-91154000D03*
D11*
X172184000Y-91354000D03*
X172584000Y-91354000D03*
D12*
X173184000Y-91154000D03*
X173184000Y-90754000D03*
X173184000Y-90354000D03*
D13*
X146000000Y-68333333D03*
X178612071Y-99900000D03*
X96000000Y-108785714D03*
D32*
X123800000Y-37820000D03*
D43*
X172075000Y-121400000D03*
D44*
X172375000Y-118335000D03*
D43*
X172675000Y-121400000D03*
D44*
X172975000Y-118335000D03*
D43*
X173275000Y-121400000D03*
D44*
X173575000Y-118335000D03*
D43*
X173875000Y-121400000D03*
D44*
X174175000Y-118335000D03*
D43*
X174475000Y-121400000D03*
D44*
X174775000Y-118335000D03*
D43*
X175075000Y-121400000D03*
D44*
X175375000Y-118335000D03*
D43*
X175675000Y-121400000D03*
D44*
X175975000Y-118335000D03*
D43*
X176275000Y-121400000D03*
D44*
X176575000Y-118335000D03*
D43*
X176875000Y-121400000D03*
D44*
X177175000Y-118335000D03*
D43*
X177475000Y-121400000D03*
D44*
X177775000Y-118335000D03*
D43*
X178075000Y-121400000D03*
D44*
X178375000Y-118335000D03*
D43*
X178675000Y-121400000D03*
D45*
X171100000Y-121135000D03*
X179650000Y-121135000D03*
D13*
X209730769Y-140000000D03*
X200900000Y-87756071D03*
D15*
X167110000Y-128885000D03*
X166090000Y-128885000D03*
X107110000Y-88885000D03*
X106090000Y-88885000D03*
D40*
X114236000Y-53825000D03*
X114236000Y-53185000D03*
D13*
X179469214Y-139900000D03*
D30*
X189975000Y-130120000D03*
X191525000Y-130120000D03*
D23*
X198033500Y-123709500D03*
X195683500Y-123709500D03*
D13*
X96000000Y-21192308D03*
D30*
X129975000Y-91728000D03*
X131525000Y-91728000D03*
D36*
X101350000Y-49995000D03*
X101350000Y-57445000D03*
D37*
X103170000Y-50970000D03*
X103170000Y-51470000D03*
X103170000Y-51970000D03*
X103170000Y-52470000D03*
X103170000Y-52970000D03*
X103170000Y-53470000D03*
X103170000Y-53970000D03*
X103170000Y-54470000D03*
X103170000Y-54970000D03*
X103170000Y-55470000D03*
X103170000Y-55970000D03*
X103170000Y-56470000D03*
D38*
X102050000Y-56770000D03*
X101350000Y-56120000D03*
X101350000Y-55320000D03*
X102050000Y-54920000D03*
X101350000Y-54520000D03*
X102050000Y-54120000D03*
X102050000Y-53320000D03*
X101350000Y-52920000D03*
X102050000Y-52520000D03*
X101350000Y-52120000D03*
X101350000Y-51320000D03*
X102050000Y-50670000D03*
D39*
X102850000Y-49220000D03*
X102850000Y-58220000D03*
X97250000Y-49220000D03*
X97250000Y-58220000D03*
D34*
X196606500Y-39339000D03*
X196606500Y-39739000D03*
X196606500Y-40139000D03*
X196606500Y-40539000D03*
X196206500Y-39339000D03*
X196206500Y-39739000D03*
X196206500Y-40139000D03*
X196206500Y-40539000D03*
X195806500Y-39339000D03*
X195806500Y-39739000D03*
X195806500Y-40139000D03*
X195806500Y-40539000D03*
X195406500Y-39339000D03*
X195406500Y-39739000D03*
X195406500Y-40139000D03*
X195406500Y-40539000D03*
D20*
X117989000Y-88600000D03*
X117989000Y-90150000D03*
X179642000Y-128600000D03*
X179642000Y-130150000D03*
D24*
X190047500Y-124859500D03*
X190047500Y-125879500D03*
D13*
X119469214Y-139900000D03*
X200900000Y-128613214D03*
X201000000Y-22038462D03*
D29*
X184284200Y-45327000D03*
X184284200Y-43777000D03*
D23*
X138033500Y-43709500D03*
X135683500Y-43709500D03*
D13*
X96000000Y-147038461D03*
X214807692Y-35000000D03*
X201000000Y-145346153D03*
D20*
X117989000Y-128600000D03*
X117989000Y-130150000D03*
D25*
X171638000Y-137605000D03*
X170678000Y-137605000D03*
D13*
X81346154Y-140000000D03*
D25*
X169685000Y-133266000D03*
X168725000Y-133266000D03*
D13*
X149333333Y-65000000D03*
X215653846Y-140000000D03*
D24*
X182260500Y-89105500D03*
X182260500Y-90125500D03*
D22*
X169669000Y-55088000D03*
X169669000Y-56048000D03*
D41*
X130274000Y-122003000D03*
D35*
X130274000Y-120733000D03*
X130274000Y-119463000D03*
D29*
X185851600Y-85327000D03*
X185851600Y-83777000D03*
D32*
X123800000Y-77820000D03*
D29*
X122716800Y-85327000D03*
X122716800Y-83777000D03*
D13*
X201000000Y-27115385D03*
X177754928Y-35100000D03*
X150166666Y-70000000D03*
D24*
X198460500Y-38114500D03*
X198460500Y-39134500D03*
D13*
X140900000Y-89470357D03*
X201000000Y-146192307D03*
X118612071Y-59900000D03*
X200900000Y-50327500D03*
X82192308Y-140000000D03*
X201000000Y-28807693D03*
D24*
X193502500Y-118502500D03*
X193502500Y-119522500D03*
D43*
X172075000Y-81400000D03*
D44*
X172375000Y-78335000D03*
D43*
X172675000Y-81400000D03*
D44*
X172975000Y-78335000D03*
D43*
X173275000Y-81400000D03*
D44*
X173575000Y-78335000D03*
D43*
X173875000Y-81400000D03*
D44*
X174175000Y-78335000D03*
D43*
X174475000Y-81400000D03*
D44*
X174775000Y-78335000D03*
D43*
X175075000Y-81400000D03*
D44*
X175375000Y-78335000D03*
D43*
X175675000Y-81400000D03*
D44*
X175975000Y-78335000D03*
D43*
X176275000Y-81400000D03*
D44*
X176575000Y-78335000D03*
D43*
X176875000Y-81400000D03*
D44*
X177175000Y-78335000D03*
D43*
X177475000Y-81400000D03*
D44*
X177775000Y-78335000D03*
D43*
X178075000Y-81400000D03*
D44*
X178375000Y-78335000D03*
D43*
X178675000Y-81400000D03*
D45*
X171100000Y-81135000D03*
X179650000Y-81135000D03*
D27*
X132297000Y-88354000D03*
X132297000Y-85404000D03*
D13*
X119469214Y-75100000D03*
D31*
X111054000Y-56167000D03*
X112004000Y-56167000D03*
X112954000Y-56167000D03*
X112954000Y-53667000D03*
X111054000Y-53667000D03*
D13*
X86423077Y-35000000D03*
D16*
X138426500Y-80422500D03*
X139386500Y-80422500D03*
D36*
X101350000Y-89995000D03*
X101350000Y-97445000D03*
D37*
X103170000Y-90970000D03*
X103170000Y-91470000D03*
X103170000Y-91970000D03*
X103170000Y-92470000D03*
X103170000Y-92970000D03*
X103170000Y-93470000D03*
X103170000Y-93970000D03*
X103170000Y-94470000D03*
X103170000Y-94970000D03*
X103170000Y-95470000D03*
X103170000Y-95970000D03*
X103170000Y-96470000D03*
D38*
X102050000Y-96770000D03*
X101350000Y-96120000D03*
X101350000Y-95320000D03*
X102050000Y-94920000D03*
X101350000Y-94520000D03*
X102050000Y-94120000D03*
X102050000Y-93320000D03*
X101350000Y-92920000D03*
X102050000Y-92520000D03*
X101350000Y-92120000D03*
X101350000Y-91320000D03*
X102050000Y-90670000D03*
D39*
X102850000Y-89220000D03*
X102850000Y-98220000D03*
X97250000Y-89220000D03*
X97250000Y-98220000D03*
D30*
X129975000Y-50120000D03*
X131525000Y-50120000D03*
D15*
X135533500Y-117303500D03*
X134513500Y-117303500D03*
D13*
X214807692Y-140000000D03*
D15*
X197493500Y-117299500D03*
X196473500Y-117299500D03*
D40*
X114236000Y-93825000D03*
X114236000Y-93185000D03*
D24*
X138460500Y-78114500D03*
X138460500Y-79134500D03*
D13*
X151000000Y-67500000D03*
X201000000Y-67071428D03*
X146000000Y-107500000D03*
D42*
X109180000Y-129005000D03*
X108540000Y-129005000D03*
D29*
X187419000Y-85327000D03*
X187419000Y-83777000D03*
D24*
X122260500Y-89105500D03*
X122260500Y-90125500D03*
D13*
X151000000Y-66666666D03*
X201000000Y-109642857D03*
X96000000Y-27115385D03*
X140900000Y-128613214D03*
D22*
X169669000Y-135088000D03*
X169669000Y-136048000D03*
D15*
X107609000Y-53276000D03*
X106589000Y-53276000D03*
D20*
X177989000Y-128600000D03*
X177989000Y-130150000D03*
D17*
X169073200Y-90261500D03*
X168251200Y-90261500D03*
D18*
X166999200Y-91099000D03*
D19*
X166256800Y-90074000D03*
X166256800Y-92124000D03*
D17*
X168251200Y-91936500D03*
X169073200Y-91936500D03*
D13*
X175183500Y-75100000D03*
D24*
X188912500Y-124859500D03*
X188912500Y-125879500D03*
D36*
X161350000Y-37495000D03*
X161350000Y-44945000D03*
D37*
X163170000Y-38470000D03*
X163170000Y-38970000D03*
X163170000Y-39470000D03*
X163170000Y-39970000D03*
X163170000Y-40470000D03*
X163170000Y-40970000D03*
X163170000Y-41470000D03*
X163170000Y-41970000D03*
X163170000Y-42470000D03*
X163170000Y-42970000D03*
X163170000Y-43470000D03*
X163170000Y-43970000D03*
D38*
X162050000Y-44270000D03*
X161350000Y-43620000D03*
X161350000Y-42820000D03*
X162050000Y-42420000D03*
X161350000Y-42020000D03*
X162050000Y-41620000D03*
X162050000Y-40820000D03*
X161350000Y-40420000D03*
X162050000Y-40020000D03*
X161350000Y-39620000D03*
X161350000Y-38820000D03*
X162050000Y-38170000D03*
D39*
X162850000Y-36720000D03*
X162850000Y-45720000D03*
X157250000Y-36720000D03*
X157250000Y-45720000D03*
D13*
X201000000Y-27961539D03*
X179469214Y-59900000D03*
D32*
X183800000Y-37820000D03*
D33*
X166869500Y-56640500D03*
X166219500Y-56640500D03*
X165569500Y-56640500D03*
X165569500Y-58540500D03*
X166219500Y-58540500D03*
X166869500Y-58540500D03*
D15*
X197493500Y-77299500D03*
X196473500Y-77299500D03*
D13*
X176897785Y-35100000D03*
D16*
X198426500Y-80422500D03*
X199386500Y-80422500D03*
D36*
X101350000Y-129995000D03*
X101350000Y-137445000D03*
D37*
X103170000Y-130970000D03*
X103170000Y-131470000D03*
X103170000Y-131970000D03*
X103170000Y-132470000D03*
X103170000Y-132970000D03*
X103170000Y-133470000D03*
X103170000Y-133970000D03*
X103170000Y-134470000D03*
X103170000Y-134970000D03*
X103170000Y-135470000D03*
X103170000Y-135970000D03*
X103170000Y-136470000D03*
D38*
X102050000Y-136770000D03*
X101350000Y-136120000D03*
X101350000Y-135320000D03*
X102050000Y-134920000D03*
X101350000Y-134520000D03*
X102050000Y-134120000D03*
X102050000Y-133320000D03*
X101350000Y-132920000D03*
X102050000Y-132520000D03*
X101350000Y-132120000D03*
X101350000Y-131320000D03*
X102050000Y-130670000D03*
D39*
X102850000Y-129220000D03*
X102850000Y-138220000D03*
X97250000Y-129220000D03*
X97250000Y-138220000D03*
D36*
X161350000Y-77495000D03*
X161350000Y-84945000D03*
D37*
X163170000Y-78470000D03*
X163170000Y-78970000D03*
X163170000Y-79470000D03*
X163170000Y-79970000D03*
X163170000Y-80470000D03*
X163170000Y-80970000D03*
X163170000Y-81470000D03*
X163170000Y-81970000D03*
X163170000Y-82470000D03*
X163170000Y-82970000D03*
X163170000Y-83470000D03*
X163170000Y-83970000D03*
D38*
X162050000Y-84270000D03*
X161350000Y-83620000D03*
X161350000Y-82820000D03*
X162050000Y-82420000D03*
X161350000Y-82020000D03*
X162050000Y-81620000D03*
X162050000Y-80820000D03*
X161350000Y-80420000D03*
X162050000Y-80020000D03*
X161350000Y-79620000D03*
X161350000Y-78820000D03*
X162050000Y-78170000D03*
D39*
X162850000Y-76720000D03*
X162850000Y-85720000D03*
X157250000Y-76720000D03*
X157250000Y-85720000D03*
D15*
X137493500Y-117299500D03*
X136473500Y-117299500D03*
D13*
X116040643Y-115100000D03*
X147214285Y-140000000D03*
D23*
X198033500Y-83709500D03*
X195683500Y-83709500D03*
D35*
X211000000Y-22500000D03*
D13*
X118612071Y-99900000D03*
X179469214Y-99900000D03*
X117754929Y-139900000D03*
D22*
X169669000Y-95088000D03*
X169669000Y-96048000D03*
D36*
X161350000Y-129995000D03*
X161350000Y-137445000D03*
D37*
X163170000Y-130970000D03*
X163170000Y-131470000D03*
X163170000Y-131970000D03*
X163170000Y-132470000D03*
X163170000Y-132970000D03*
X163170000Y-133470000D03*
X163170000Y-133970000D03*
X163170000Y-134470000D03*
X163170000Y-134970000D03*
X163170000Y-135470000D03*
X163170000Y-135970000D03*
X163170000Y-136470000D03*
D38*
X162050000Y-136770000D03*
X161350000Y-136120000D03*
X161350000Y-135320000D03*
X162050000Y-134920000D03*
X161350000Y-134520000D03*
X162050000Y-134120000D03*
X162050000Y-133320000D03*
X161350000Y-132920000D03*
X162050000Y-132520000D03*
X161350000Y-132120000D03*
X161350000Y-131320000D03*
X162050000Y-130670000D03*
D39*
X162850000Y-129220000D03*
X162850000Y-138220000D03*
X157250000Y-129220000D03*
X157250000Y-138220000D03*
D13*
X87269231Y-35000000D03*
X89807693Y-140000000D03*
X200900000Y-49470357D03*
D15*
X195533500Y-77303500D03*
X194513500Y-77303500D03*
D13*
X207192307Y-35000000D03*
D29*
X184284200Y-85327000D03*
X184284200Y-83777000D03*
D13*
X200900000Y-126041785D03*
X116040643Y-99900000D03*
X96000000Y-154653846D03*
X88961539Y-140000000D03*
X150166666Y-110000000D03*
D36*
X161350000Y-49995000D03*
X161350000Y-57445000D03*
D37*
X163170000Y-50970000D03*
X163170000Y-51470000D03*
X163170000Y-51970000D03*
X163170000Y-52470000D03*
X163170000Y-52970000D03*
X163170000Y-53470000D03*
X163170000Y-53970000D03*
X163170000Y-54470000D03*
X163170000Y-54970000D03*
X163170000Y-55470000D03*
X163170000Y-55970000D03*
X163170000Y-56470000D03*
D38*
X162050000Y-56770000D03*
X161350000Y-56120000D03*
X161350000Y-55320000D03*
X162050000Y-54920000D03*
X161350000Y-54520000D03*
X162050000Y-54120000D03*
X162050000Y-53320000D03*
X161350000Y-52920000D03*
X162050000Y-52520000D03*
X161350000Y-52120000D03*
X161350000Y-51320000D03*
X162050000Y-50670000D03*
D39*
X162850000Y-49220000D03*
X162850000Y-58220000D03*
X157250000Y-49220000D03*
X157250000Y-58220000D03*
D13*
X115183500Y-35100000D03*
D16*
X198417500Y-121481500D03*
X199377500Y-121481500D03*
D13*
X150166666Y-65000000D03*
D22*
X133520500Y-122458500D03*
X133520500Y-123418500D03*
D15*
X107110000Y-48885000D03*
X106090000Y-48885000D03*
D13*
X176897785Y-59900000D03*
X150166666Y-105000000D03*
D20*
X117989000Y-48600000D03*
X117989000Y-50150000D03*
D13*
X201000000Y-149576923D03*
D40*
X174236000Y-133825000D03*
X174236000Y-133185000D03*
D30*
X189975000Y-51728000D03*
X191525000Y-51728000D03*
D42*
X169180000Y-89005000D03*
X168540000Y-89005000D03*
D13*
X176040642Y-99900000D03*
D15*
X135533500Y-77303500D03*
X134513500Y-77303500D03*
D13*
X201000000Y-107928571D03*
X146000000Y-65833333D03*
D22*
X193520500Y-82458500D03*
X193520500Y-83418500D03*
D24*
X138460500Y-118114500D03*
X138460500Y-119134500D03*
D13*
X178612071Y-59900000D03*
D10*
X112584000Y-130204000D03*
D11*
X112184000Y-130154000D03*
D12*
X111584000Y-130354000D03*
X111584000Y-130754000D03*
X111584000Y-131154000D03*
D11*
X112184000Y-131354000D03*
X112584000Y-131354000D03*
D12*
X113184000Y-131154000D03*
X113184000Y-130754000D03*
X113184000Y-130354000D03*
D13*
X179469214Y-75100000D03*
D29*
X122716800Y-45327000D03*
X122716800Y-43777000D03*
D13*
X208038461Y-140000000D03*
X146000000Y-105000000D03*
X148500000Y-70000000D03*
D42*
X109180000Y-89005000D03*
X108540000Y-89005000D03*
D17*
X109073200Y-130261500D03*
X108251200Y-130261500D03*
D18*
X106999200Y-131099000D03*
D19*
X106256800Y-130074000D03*
X106256800Y-132124000D03*
D17*
X108251200Y-131936500D03*
X109073200Y-131936500D03*
D13*
X81346154Y-35000000D03*
X115183500Y-99900000D03*
X116040643Y-75100000D03*
X210576923Y-140000000D03*
X96000000Y-150423076D03*
X146000000Y-106666666D03*
X212269230Y-35000000D03*
D29*
X184284200Y-125327000D03*
X184284200Y-123777000D03*
D32*
X123800000Y-57180000D03*
D15*
X195533500Y-117303500D03*
X194513500Y-117303500D03*
D13*
X146357142Y-140000000D03*
D10*
X112584000Y-90204000D03*
D11*
X112184000Y-90154000D03*
D12*
X111584000Y-90354000D03*
X111584000Y-90754000D03*
X111584000Y-91154000D03*
D11*
X112184000Y-91354000D03*
X112584000Y-91354000D03*
D12*
X113184000Y-91154000D03*
X113184000Y-90754000D03*
X113184000Y-90354000D03*
D13*
X96000000Y-67928571D03*
X176040642Y-35100000D03*
D32*
X123800000Y-97180000D03*
D13*
X175183500Y-99900000D03*
D24*
X130047500Y-124859500D03*
X130047500Y-125879500D03*
D13*
X200900000Y-44327500D03*
X201000000Y-152115384D03*
X180326357Y-75100000D03*
X149333333Y-105000000D03*
D21*
X184912000Y-48745000D03*
X185262000Y-48745000D03*
X185612000Y-48745000D03*
X185962000Y-48745000D03*
X186312000Y-48745000D03*
X186662000Y-48745000D03*
X187012000Y-48745000D03*
X184912000Y-49095000D03*
X185262000Y-49095000D03*
X185612000Y-49095000D03*
X185962000Y-49095000D03*
X186312000Y-49095000D03*
X186662000Y-49095000D03*
X187012000Y-49095000D03*
X184912000Y-49445000D03*
X185262000Y-49445000D03*
X185612000Y-49445000D03*
X185962000Y-49445000D03*
X186312000Y-49445000D03*
X186662000Y-49445000D03*
X187012000Y-49445000D03*
X184912000Y-49795000D03*
X185262000Y-49795000D03*
X185612000Y-49795000D03*
X185962000Y-49795000D03*
X186312000Y-49795000D03*
X186662000Y-49795000D03*
X187012000Y-49795000D03*
X184912000Y-50145000D03*
X185262000Y-50145000D03*
X185612000Y-50145000D03*
X185962000Y-50145000D03*
X186312000Y-50145000D03*
X186662000Y-50145000D03*
X187012000Y-50145000D03*
X184912000Y-50495000D03*
X185262000Y-50495000D03*
X185612000Y-50495000D03*
X185962000Y-50495000D03*
X186312000Y-50495000D03*
X186662000Y-50495000D03*
X187012000Y-50495000D03*
X184912000Y-50845000D03*
X185262000Y-50845000D03*
X185612000Y-50845000D03*
X185962000Y-50845000D03*
X186312000Y-50845000D03*
X186662000Y-50845000D03*
X187012000Y-50845000D03*
D13*
X178612071Y-35100000D03*
D32*
X183800000Y-77820000D03*
D13*
X213961538Y-35000000D03*
D25*
X109685000Y-133266000D03*
X108725000Y-133266000D03*
D15*
X107609000Y-133276000D03*
X106589000Y-133276000D03*
D29*
X187419000Y-125327000D03*
X187419000Y-123777000D03*
D13*
X201000000Y-68785714D03*
X208884615Y-140000000D03*
X96000000Y-149576923D03*
X116897786Y-35100000D03*
D30*
X189975000Y-91728000D03*
X191525000Y-91728000D03*
D13*
X146000000Y-110000000D03*
X83884616Y-35000000D03*
D29*
X185851600Y-125327000D03*
X185851600Y-123777000D03*
D15*
X167609000Y-53276000D03*
X166589000Y-53276000D03*
D42*
X169180000Y-49005000D03*
X168540000Y-49005000D03*
D20*
X179642000Y-88600000D03*
X179642000Y-90150000D03*
D29*
X185851600Y-45327000D03*
X185851600Y-43777000D03*
D13*
X201000000Y-107071428D03*
D31*
X111054000Y-96167000D03*
X112004000Y-96167000D03*
X112954000Y-96167000D03*
X112954000Y-93667000D03*
X111054000Y-93667000D03*
D13*
X118612071Y-35100000D03*
D41*
X130274000Y-82003000D03*
D35*
X130274000Y-80733000D03*
X130274000Y-79463000D03*
D25*
X169685000Y-53266000D03*
X168725000Y-53266000D03*
D13*
X119469214Y-59900000D03*
X148071428Y-140000000D03*
X201000000Y-65357142D03*
X146833333Y-70000000D03*
X201000000Y-66214285D03*
D41*
X190274000Y-42003000D03*
D35*
X190274000Y-40733000D03*
X190274000Y-39463000D03*
D10*
X172584000Y-50204000D03*
D11*
X172184000Y-50154000D03*
D12*
X171584000Y-50354000D03*
X171584000Y-50754000D03*
X171584000Y-51154000D03*
D11*
X172184000Y-51354000D03*
X172584000Y-51354000D03*
D12*
X173184000Y-51154000D03*
X173184000Y-50754000D03*
X173184000Y-50354000D03*
D13*
X200900000Y-46041786D03*
X83038462Y-140000000D03*
X96000000Y-67071428D03*
X140900000Y-90327500D03*
D28*
X186085000Y-93157000D03*
X187105000Y-93157000D03*
D29*
X182716800Y-125327000D03*
X182716800Y-123777000D03*
D24*
X190047500Y-84859500D03*
X190047500Y-85879500D03*
D15*
X135533500Y-37303500D03*
X134513500Y-37303500D03*
D22*
X109669000Y-135088000D03*
X109669000Y-136048000D03*
D13*
X201000000Y-106214285D03*
D32*
X183800000Y-97180000D03*
D13*
X180326357Y-35100000D03*
X96000000Y-109642857D03*
X140900000Y-130327500D03*
X115183500Y-75100000D03*
D35*
X86000000Y-22500000D03*
D13*
X148928571Y-140000000D03*
X151000000Y-108333333D03*
D36*
X161350000Y-89995000D03*
X161350000Y-97445000D03*
D37*
X163170000Y-90970000D03*
X163170000Y-91470000D03*
X163170000Y-91970000D03*
X163170000Y-92470000D03*
X163170000Y-92970000D03*
X163170000Y-93470000D03*
X163170000Y-93970000D03*
X163170000Y-94470000D03*
X163170000Y-94970000D03*
X163170000Y-95470000D03*
X163170000Y-95970000D03*
X163170000Y-96470000D03*
D38*
X162050000Y-96770000D03*
X161350000Y-96120000D03*
X161350000Y-95320000D03*
X162050000Y-94920000D03*
X161350000Y-94520000D03*
X162050000Y-94120000D03*
X162050000Y-93320000D03*
X161350000Y-92920000D03*
X162050000Y-92520000D03*
X161350000Y-92120000D03*
X161350000Y-91320000D03*
X162050000Y-90670000D03*
D39*
X162850000Y-89220000D03*
X162850000Y-98220000D03*
X157250000Y-89220000D03*
X157250000Y-98220000D03*
D20*
X179642000Y-48600000D03*
X179642000Y-50150000D03*
D13*
X146000000Y-108333333D03*
X140900000Y-85184642D03*
X120326357Y-139900000D03*
D43*
X112075000Y-81400000D03*
D44*
X112375000Y-78335000D03*
D43*
X112675000Y-81400000D03*
D44*
X112975000Y-78335000D03*
D43*
X113275000Y-81400000D03*
D44*
X113575000Y-78335000D03*
D43*
X113875000Y-81400000D03*
D44*
X114175000Y-78335000D03*
D43*
X114475000Y-81400000D03*
D44*
X114775000Y-78335000D03*
D43*
X115075000Y-81400000D03*
D44*
X115375000Y-78335000D03*
D43*
X115675000Y-81400000D03*
D44*
X115975000Y-78335000D03*
D43*
X116275000Y-81400000D03*
D44*
X116575000Y-78335000D03*
D43*
X116875000Y-81400000D03*
D44*
X117175000Y-78335000D03*
D43*
X117475000Y-81400000D03*
D44*
X117775000Y-78335000D03*
D43*
X118075000Y-81400000D03*
D44*
X118375000Y-78335000D03*
D43*
X118675000Y-81400000D03*
D45*
X111100000Y-81135000D03*
X119650000Y-81135000D03*
D13*
X83884616Y-140000000D03*
X201000000Y-26269231D03*
X201000000Y-22884616D03*
D16*
X198426500Y-40422500D03*
X199386500Y-40422500D03*
D30*
X129975000Y-51728000D03*
X131525000Y-51728000D03*
D13*
X151000000Y-110000000D03*
D29*
X182716800Y-45327000D03*
X182716800Y-43777000D03*
D24*
X128912500Y-84859500D03*
X128912500Y-85879500D03*
D13*
X200900000Y-129470357D03*
D15*
X137493500Y-37299500D03*
X136473500Y-37299500D03*
D13*
X120326357Y-99900000D03*
X201000000Y-23730770D03*
X201000000Y-150423076D03*
X88961539Y-35000000D03*
X181183500Y-59900000D03*
D34*
X196606500Y-119339000D03*
X196606500Y-119739000D03*
X196606500Y-120139000D03*
X196606500Y-120539000D03*
X196206500Y-119339000D03*
X196206500Y-119739000D03*
X196206500Y-120139000D03*
X196206500Y-120539000D03*
X195806500Y-119339000D03*
X195806500Y-119739000D03*
X195806500Y-120139000D03*
X195806500Y-120539000D03*
X195406500Y-119339000D03*
X195406500Y-119739000D03*
X195406500Y-120139000D03*
X195406500Y-120539000D03*
D13*
X140900000Y-48613214D03*
D34*
X136606500Y-79339000D03*
X136606500Y-79739000D03*
X136606500Y-80139000D03*
X136606500Y-80539000D03*
X136206500Y-79339000D03*
X136206500Y-79739000D03*
X136206500Y-80139000D03*
X136206500Y-80539000D03*
X135806500Y-79339000D03*
X135806500Y-79739000D03*
X135806500Y-80139000D03*
X135806500Y-80539000D03*
X135406500Y-79339000D03*
X135406500Y-79739000D03*
X135406500Y-80139000D03*
X135406500Y-80539000D03*
D23*
X198033500Y-43709500D03*
X195683500Y-43709500D03*
D13*
X148500000Y-105000000D03*
X200900000Y-125184642D03*
D42*
X109180000Y-49005000D03*
X108540000Y-49005000D03*
D13*
X147666666Y-70000000D03*
D20*
X119642000Y-48600000D03*
X119642000Y-50150000D03*
D24*
X122260500Y-129105500D03*
X122260500Y-130125500D03*
D13*
X140900000Y-86898928D03*
X176897785Y-99900000D03*
M02*
