G04 #@! TF.GenerationSoftware,KiCad,Pcbnew,7.0.7*
G04 #@! TF.CreationDate,2024-04-05T11:51:01+02:00*
G04 #@! TF.ProjectId,Versa_ECG_PPG_panel,56657273-615f-4454-9347-5f5050475f70,00*
G04 #@! TF.SameCoordinates,Original*
G04 #@! TF.FileFunction,Paste,Bot*
G04 #@! TF.FilePolarity,Positive*
%FSLAX46Y46*%
G04 Gerber Fmt 4.6, Leading zero omitted, Abs format (unit mm)*
G04 Created by KiCad (PCBNEW 7.0.7) date 2024-04-05 11:51:01*
%MOMM*%
%LPD*%
G01*
G04 APERTURE LIST*
G04 Aperture macros list*
%AMRoundRect*
0 Rectangle with rounded corners*
0 $1 Rounding radius*
0 $2 $3 $4 $5 $6 $7 $8 $9 X,Y pos of 4 corners*
0 Add a 4 corners polygon primitive as box body*
4,1,4,$2,$3,$4,$5,$6,$7,$8,$9,$2,$3,0*
0 Add four circle primitives for the rounded corners*
1,1,$1+$1,$2,$3*
1,1,$1+$1,$4,$5*
1,1,$1+$1,$6,$7*
1,1,$1+$1,$8,$9*
0 Add four rect primitives between the rounded corners*
20,1,$1+$1,$2,$3,$4,$5,0*
20,1,$1+$1,$4,$5,$6,$7,0*
20,1,$1+$1,$6,$7,$8,$9,0*
20,1,$1+$1,$8,$9,$2,$3,0*%
G04 Aperture macros list end*
%ADD10RoundRect,0.135000X-0.185000X0.135000X-0.185000X-0.135000X0.185000X-0.135000X0.185000X0.135000X0*%
%ADD11RoundRect,0.135000X-0.135000X-0.185000X0.135000X-0.185000X0.135000X0.185000X-0.135000X0.185000X0*%
%ADD12RoundRect,0.225000X0.225000X0.250000X-0.225000X0.250000X-0.225000X-0.250000X0.225000X-0.250000X0*%
%ADD13RoundRect,0.135000X0.135000X0.185000X-0.135000X0.185000X-0.135000X-0.185000X0.135000X-0.185000X0*%
%ADD14RoundRect,0.225000X-0.225000X-0.250000X0.225000X-0.250000X0.225000X0.250000X-0.225000X0.250000X0*%
%ADD15R,0.300000X0.250000*%
%ADD16R,2.100000X2.550000*%
%ADD17RoundRect,0.225000X-0.250000X0.225000X-0.250000X-0.225000X0.250000X-0.225000X0.250000X0.225000X0*%
%ADD18R,0.250000X1.800000*%
%ADD19R,0.750000X1.800000*%
%ADD20R,0.300000X0.670000*%
%ADD21R,0.300000X0.500000*%
%ADD22R,0.350000X1.000000*%
G04 APERTURE END LIST*
D10*
X187467000Y-124175000D03*
X187467000Y-125195000D03*
D11*
X135872000Y-94230000D03*
X136892000Y-94230000D03*
D12*
X131140000Y-131940000D03*
X129590000Y-131940000D03*
D13*
X126453000Y-45144000D03*
X125433000Y-45144000D03*
D14*
X189590000Y-88813000D03*
X191140000Y-88813000D03*
X129590000Y-88813000D03*
X131140000Y-88813000D03*
D12*
X131140000Y-51940000D03*
X129590000Y-51940000D03*
D10*
X125812000Y-52857000D03*
X125812000Y-53877000D03*
D14*
X189590000Y-93846000D03*
X191140000Y-93846000D03*
D13*
X126453000Y-85144000D03*
X125433000Y-85144000D03*
D14*
X129590000Y-50376500D03*
X131140000Y-50376500D03*
D15*
X136082000Y-130050000D03*
X136082000Y-130550000D03*
X136082000Y-131050000D03*
X136082000Y-131550000D03*
X136082000Y-132050000D03*
D16*
X134432000Y-131050000D03*
D15*
X196082000Y-90050000D03*
X196082000Y-90550000D03*
X196082000Y-91050000D03*
X196082000Y-91550000D03*
X196082000Y-92050000D03*
D16*
X194432000Y-91050000D03*
D14*
X129590000Y-133846000D03*
X131140000Y-133846000D03*
X189590000Y-50376500D03*
X191140000Y-50376500D03*
D11*
X195872000Y-94230000D03*
X196892000Y-94230000D03*
D10*
X125812000Y-92857000D03*
X125812000Y-93877000D03*
X127467000Y-44175000D03*
X127467000Y-45195000D03*
D17*
X138237000Y-50448000D03*
X138237000Y-51998000D03*
X198237000Y-90448000D03*
X198237000Y-91998000D03*
D11*
X135872000Y-134230000D03*
X136892000Y-134230000D03*
X135872000Y-54230000D03*
X136892000Y-54230000D03*
D15*
X196082000Y-50050000D03*
X196082000Y-50550000D03*
X196082000Y-51050000D03*
X196082000Y-51550000D03*
X196082000Y-52050000D03*
D16*
X194432000Y-51050000D03*
D13*
X126453000Y-125144000D03*
X125433000Y-125144000D03*
D11*
X132677000Y-54227000D03*
X133697000Y-54227000D03*
D13*
X186453000Y-125144000D03*
X185433000Y-125144000D03*
D18*
X179146500Y-93564500D03*
X179146500Y-88564500D03*
X178646500Y-93564500D03*
X178646500Y-88564500D03*
X178146500Y-93564500D03*
X178146500Y-88564500D03*
X177646500Y-93564500D03*
X177646500Y-88564500D03*
X177146500Y-93564500D03*
X177146500Y-88564500D03*
X176646500Y-93564500D03*
X176646500Y-88564500D03*
X176146500Y-93564500D03*
X176146500Y-88564500D03*
X175646500Y-93564500D03*
X175646500Y-88564500D03*
X175146500Y-93564500D03*
X175146500Y-88564500D03*
X174646500Y-93564500D03*
X174646500Y-88564500D03*
D19*
X179896500Y-93564500D03*
X179896500Y-88564500D03*
X173896500Y-88564500D03*
X173896500Y-93564500D03*
D10*
X125812000Y-132857000D03*
X125812000Y-133877000D03*
D20*
X178675000Y-121400000D03*
D21*
X178375000Y-118335000D03*
D20*
X178075000Y-121400000D03*
D21*
X177775000Y-118335000D03*
D20*
X177475000Y-121400000D03*
D21*
X177175000Y-118335000D03*
D20*
X176875000Y-121400000D03*
D21*
X176575000Y-118335000D03*
D20*
X176275000Y-121400000D03*
D21*
X175975000Y-118335000D03*
D20*
X175675000Y-121400000D03*
D21*
X175375000Y-118335000D03*
D20*
X175075000Y-121400000D03*
D21*
X174775000Y-118335000D03*
D20*
X174475000Y-121400000D03*
D21*
X174175000Y-118335000D03*
D20*
X173875000Y-121400000D03*
D21*
X173575000Y-118335000D03*
D20*
X173275000Y-121400000D03*
D21*
X172975000Y-118335000D03*
D20*
X172675000Y-121400000D03*
D21*
X172375000Y-118335000D03*
D20*
X172075000Y-121400000D03*
D22*
X179650000Y-121135000D03*
X171100000Y-121135000D03*
D15*
X136082000Y-90050000D03*
X136082000Y-90550000D03*
X136082000Y-91050000D03*
X136082000Y-91550000D03*
X136082000Y-92050000D03*
D16*
X134432000Y-91050000D03*
D11*
X192677000Y-134227000D03*
X193697000Y-134227000D03*
D12*
X191140000Y-91940000D03*
X189590000Y-91940000D03*
X131140000Y-91940000D03*
X129590000Y-91940000D03*
D20*
X178675000Y-81400000D03*
D21*
X178375000Y-78335000D03*
D20*
X178075000Y-81400000D03*
D21*
X177775000Y-78335000D03*
D20*
X177475000Y-81400000D03*
D21*
X177175000Y-78335000D03*
D20*
X176875000Y-81400000D03*
D21*
X176575000Y-78335000D03*
D20*
X176275000Y-81400000D03*
D21*
X175975000Y-78335000D03*
D20*
X175675000Y-81400000D03*
D21*
X175375000Y-78335000D03*
D20*
X175075000Y-81400000D03*
D21*
X174775000Y-78335000D03*
D20*
X174475000Y-81400000D03*
D21*
X174175000Y-78335000D03*
D20*
X173875000Y-81400000D03*
D21*
X173575000Y-78335000D03*
D20*
X173275000Y-81400000D03*
D21*
X172975000Y-78335000D03*
D20*
X172675000Y-81400000D03*
D21*
X172375000Y-78335000D03*
D20*
X172075000Y-81400000D03*
D22*
X179650000Y-81135000D03*
X171100000Y-81135000D03*
D20*
X118675000Y-41400000D03*
D21*
X118375000Y-38335000D03*
D20*
X118075000Y-41400000D03*
D21*
X117775000Y-38335000D03*
D20*
X117475000Y-41400000D03*
D21*
X117175000Y-38335000D03*
D20*
X116875000Y-41400000D03*
D21*
X116575000Y-38335000D03*
D20*
X116275000Y-41400000D03*
D21*
X115975000Y-38335000D03*
D20*
X115675000Y-41400000D03*
D21*
X115375000Y-38335000D03*
D20*
X115075000Y-41400000D03*
D21*
X114775000Y-38335000D03*
D20*
X114475000Y-41400000D03*
D21*
X114175000Y-38335000D03*
D20*
X113875000Y-41400000D03*
D21*
X113575000Y-38335000D03*
D20*
X113275000Y-41400000D03*
D21*
X112975000Y-38335000D03*
D20*
X112675000Y-41400000D03*
D21*
X112375000Y-38335000D03*
D20*
X112075000Y-41400000D03*
D22*
X119650000Y-41135000D03*
X111100000Y-41135000D03*
D14*
X189590000Y-48813000D03*
X191140000Y-48813000D03*
D10*
X187467000Y-44175000D03*
X187467000Y-45195000D03*
D14*
X189590000Y-55420000D03*
X191140000Y-55420000D03*
D18*
X179146500Y-53564500D03*
X179146500Y-48564500D03*
X178646500Y-53564500D03*
X178646500Y-48564500D03*
X178146500Y-53564500D03*
X178146500Y-48564500D03*
X177646500Y-53564500D03*
X177646500Y-48564500D03*
X177146500Y-53564500D03*
X177146500Y-48564500D03*
X176646500Y-53564500D03*
X176646500Y-48564500D03*
X176146500Y-53564500D03*
X176146500Y-48564500D03*
X175646500Y-53564500D03*
X175646500Y-48564500D03*
X175146500Y-53564500D03*
X175146500Y-48564500D03*
X174646500Y-53564500D03*
X174646500Y-48564500D03*
D19*
X179896500Y-53564500D03*
X179896500Y-48564500D03*
X173896500Y-48564500D03*
X173896500Y-53564500D03*
D10*
X187467000Y-84175000D03*
X187467000Y-85195000D03*
D14*
X129590000Y-93846000D03*
X131140000Y-93846000D03*
D20*
X178675000Y-41400000D03*
D21*
X178375000Y-38335000D03*
D20*
X178075000Y-41400000D03*
D21*
X177775000Y-38335000D03*
D20*
X177475000Y-41400000D03*
D21*
X177175000Y-38335000D03*
D20*
X176875000Y-41400000D03*
D21*
X176575000Y-38335000D03*
D20*
X176275000Y-41400000D03*
D21*
X175975000Y-38335000D03*
D20*
X175675000Y-41400000D03*
D21*
X175375000Y-38335000D03*
D20*
X175075000Y-41400000D03*
D21*
X174775000Y-38335000D03*
D20*
X174475000Y-41400000D03*
D21*
X174175000Y-38335000D03*
D20*
X173875000Y-41400000D03*
D21*
X173575000Y-38335000D03*
D20*
X173275000Y-41400000D03*
D21*
X172975000Y-38335000D03*
D20*
X172675000Y-41400000D03*
D21*
X172375000Y-38335000D03*
D20*
X172075000Y-41400000D03*
D22*
X179650000Y-41135000D03*
X171100000Y-41135000D03*
D18*
X119146500Y-53564500D03*
X119146500Y-48564500D03*
X118646500Y-53564500D03*
X118646500Y-48564500D03*
X118146500Y-53564500D03*
X118146500Y-48564500D03*
X117646500Y-53564500D03*
X117646500Y-48564500D03*
X117146500Y-53564500D03*
X117146500Y-48564500D03*
X116646500Y-53564500D03*
X116646500Y-48564500D03*
X116146500Y-53564500D03*
X116146500Y-48564500D03*
X115646500Y-53564500D03*
X115646500Y-48564500D03*
X115146500Y-53564500D03*
X115146500Y-48564500D03*
X114646500Y-53564500D03*
X114646500Y-48564500D03*
D19*
X119896500Y-53564500D03*
X119896500Y-48564500D03*
X113896500Y-48564500D03*
X113896500Y-53564500D03*
D17*
X198237000Y-130448000D03*
X198237000Y-131998000D03*
D14*
X129590000Y-128813000D03*
X131140000Y-128813000D03*
X129590000Y-90376500D03*
X131140000Y-90376500D03*
X189590000Y-133846000D03*
X191140000Y-133846000D03*
D20*
X118675000Y-81400000D03*
D21*
X118375000Y-78335000D03*
D20*
X118075000Y-81400000D03*
D21*
X117775000Y-78335000D03*
D20*
X117475000Y-81400000D03*
D21*
X117175000Y-78335000D03*
D20*
X116875000Y-81400000D03*
D21*
X116575000Y-78335000D03*
D20*
X116275000Y-81400000D03*
D21*
X115975000Y-78335000D03*
D20*
X115675000Y-81400000D03*
D21*
X115375000Y-78335000D03*
D20*
X115075000Y-81400000D03*
D21*
X114775000Y-78335000D03*
D20*
X114475000Y-81400000D03*
D21*
X114175000Y-78335000D03*
D20*
X113875000Y-81400000D03*
D21*
X113575000Y-78335000D03*
D20*
X113275000Y-81400000D03*
D21*
X112975000Y-78335000D03*
D20*
X112675000Y-81400000D03*
D21*
X112375000Y-78335000D03*
D20*
X112075000Y-81400000D03*
D22*
X119650000Y-81135000D03*
X111100000Y-81135000D03*
D13*
X186453000Y-85144000D03*
X185433000Y-85144000D03*
D14*
X129590000Y-53846000D03*
X131140000Y-53846000D03*
X189590000Y-53846000D03*
X191140000Y-53846000D03*
D12*
X191140000Y-51940000D03*
X189590000Y-51940000D03*
D18*
X179146500Y-133564500D03*
X179146500Y-128564500D03*
X178646500Y-133564500D03*
X178646500Y-128564500D03*
X178146500Y-133564500D03*
X178146500Y-128564500D03*
X177646500Y-133564500D03*
X177646500Y-128564500D03*
X177146500Y-133564500D03*
X177146500Y-128564500D03*
X176646500Y-133564500D03*
X176646500Y-128564500D03*
X176146500Y-133564500D03*
X176146500Y-128564500D03*
X175646500Y-133564500D03*
X175646500Y-128564500D03*
X175146500Y-133564500D03*
X175146500Y-128564500D03*
X174646500Y-133564500D03*
X174646500Y-128564500D03*
D19*
X179896500Y-133564500D03*
X179896500Y-128564500D03*
X173896500Y-128564500D03*
X173896500Y-133564500D03*
D11*
X195872000Y-54230000D03*
X196892000Y-54230000D03*
D14*
X129590000Y-135420000D03*
X131140000Y-135420000D03*
X129590000Y-48813000D03*
X131140000Y-48813000D03*
D17*
X138237000Y-130448000D03*
X138237000Y-131998000D03*
X138237000Y-90448000D03*
X138237000Y-91998000D03*
D12*
X191140000Y-131940000D03*
X189590000Y-131940000D03*
D10*
X127467000Y-124175000D03*
X127467000Y-125195000D03*
D11*
X192677000Y-54227000D03*
X193697000Y-54227000D03*
D14*
X189590000Y-90376500D03*
X191140000Y-90376500D03*
X129590000Y-95420000D03*
X131140000Y-95420000D03*
X189590000Y-130376500D03*
X191140000Y-130376500D03*
D10*
X185812000Y-132857000D03*
X185812000Y-133877000D03*
D11*
X192677000Y-94227000D03*
X193697000Y-94227000D03*
D18*
X119146500Y-93564500D03*
X119146500Y-88564500D03*
X118646500Y-93564500D03*
X118646500Y-88564500D03*
X118146500Y-93564500D03*
X118146500Y-88564500D03*
X117646500Y-93564500D03*
X117646500Y-88564500D03*
X117146500Y-93564500D03*
X117146500Y-88564500D03*
X116646500Y-93564500D03*
X116646500Y-88564500D03*
X116146500Y-93564500D03*
X116146500Y-88564500D03*
X115646500Y-93564500D03*
X115646500Y-88564500D03*
X115146500Y-93564500D03*
X115146500Y-88564500D03*
X114646500Y-93564500D03*
X114646500Y-88564500D03*
D19*
X119896500Y-93564500D03*
X119896500Y-88564500D03*
X113896500Y-88564500D03*
X113896500Y-93564500D03*
D10*
X185812000Y-52857000D03*
X185812000Y-53877000D03*
D14*
X189590000Y-95420000D03*
X191140000Y-95420000D03*
D13*
X186453000Y-45144000D03*
X185433000Y-45144000D03*
D20*
X118675000Y-121400000D03*
D21*
X118375000Y-118335000D03*
D20*
X118075000Y-121400000D03*
D21*
X117775000Y-118335000D03*
D20*
X117475000Y-121400000D03*
D21*
X117175000Y-118335000D03*
D20*
X116875000Y-121400000D03*
D21*
X116575000Y-118335000D03*
D20*
X116275000Y-121400000D03*
D21*
X115975000Y-118335000D03*
D20*
X115675000Y-121400000D03*
D21*
X115375000Y-118335000D03*
D20*
X115075000Y-121400000D03*
D21*
X114775000Y-118335000D03*
D20*
X114475000Y-121400000D03*
D21*
X114175000Y-118335000D03*
D20*
X113875000Y-121400000D03*
D21*
X113575000Y-118335000D03*
D20*
X113275000Y-121400000D03*
D21*
X112975000Y-118335000D03*
D20*
X112675000Y-121400000D03*
D21*
X112375000Y-118335000D03*
D20*
X112075000Y-121400000D03*
D22*
X119650000Y-121135000D03*
X111100000Y-121135000D03*
D14*
X129590000Y-130376500D03*
X131140000Y-130376500D03*
D15*
X196082000Y-130050000D03*
X196082000Y-130550000D03*
X196082000Y-131050000D03*
X196082000Y-131550000D03*
X196082000Y-132050000D03*
D16*
X194432000Y-131050000D03*
D11*
X132677000Y-94227000D03*
X133697000Y-94227000D03*
D14*
X189590000Y-135420000D03*
X191140000Y-135420000D03*
D10*
X127467000Y-84175000D03*
X127467000Y-85195000D03*
D11*
X132677000Y-134227000D03*
X133697000Y-134227000D03*
D17*
X198237000Y-50448000D03*
X198237000Y-51998000D03*
D14*
X189590000Y-128813000D03*
X191140000Y-128813000D03*
D10*
X185812000Y-92857000D03*
X185812000Y-93877000D03*
D14*
X129590000Y-55420000D03*
X131140000Y-55420000D03*
D15*
X136082000Y-50050000D03*
X136082000Y-50550000D03*
X136082000Y-51050000D03*
X136082000Y-51550000D03*
X136082000Y-52050000D03*
D16*
X134432000Y-51050000D03*
D18*
X119146500Y-133564500D03*
X119146500Y-128564500D03*
X118646500Y-133564500D03*
X118646500Y-128564500D03*
X118146500Y-133564500D03*
X118146500Y-128564500D03*
X117646500Y-133564500D03*
X117646500Y-128564500D03*
X117146500Y-133564500D03*
X117146500Y-128564500D03*
X116646500Y-133564500D03*
X116646500Y-128564500D03*
X116146500Y-133564500D03*
X116146500Y-128564500D03*
X115646500Y-133564500D03*
X115646500Y-128564500D03*
X115146500Y-133564500D03*
X115146500Y-128564500D03*
X114646500Y-133564500D03*
X114646500Y-128564500D03*
D19*
X119896500Y-133564500D03*
X119896500Y-128564500D03*
X113896500Y-128564500D03*
X113896500Y-133564500D03*
D11*
X195872000Y-134230000D03*
X196892000Y-134230000D03*
M02*
